<?xml version="1.0" encoding="UTF-8"?><svg xmlns="http://www.w3.org/2000/svg" xmlns:xlink="http://www.w3.org/1999/xlink" stroke-dasharray="none" shape-rendering="auto" font-family="'Dialog'" width="1240" text-rendering="auto" fill-opacity="1" contentScriptType="text/ecmascript" color-interpolation="auto" color-rendering="auto" preserveAspectRatio="xMidYMid meet" font-size="12" viewBox="0 0 1240 230" fill="black" stroke="black" image-rendering="auto" stroke-miterlimit="10" zoomAndPan="magnify" version="1.0" stroke-linecap="square" stroke-linejoin="miter" contentStyleType="text/css" font-style="normal" height="230" stroke-width="1" stroke-dashoffset="0" font-weight="normal" stroke-opacity="1">
    <!--Generated by the Batik Graphics2D SVG Generator-->
    <defs id="genericDefs"/>
    <g>
        <defs id="defs1">
            <linearGradient x1="10" x2="10" y1="10" gradientUnits="userSpaceOnUse" y2="110" xlink:type="simple" xlink:actuate="onLoad" id="linearGradient1" xlink:show="other" spreadMethod="pad">
                <stop stop-opacity="1" stop-color="white" offset="0%"/>
                <stop stop-opacity="1" stop-color="rgb(195,209,213)" offset="100%"/>
            </linearGradient>
            <linearGradient x1="10" x2="10" y1="170" gradientUnits="userSpaceOnUse" y2="220" xlink:type="simple" xlink:actuate="onLoad" id="linearGradient2" xlink:show="other" spreadMethod="pad">
                <stop stop-opacity="1" stop-color="white" offset="0%"/>
                <stop stop-opacity="1" stop-color="rgb(195,215,221)" offset="100%"/>
            </linearGradient>
            <linearGradient x1="170" x2="170" y1="10" gradientUnits="userSpaceOnUse" y2="110" xlink:type="simple" xlink:actuate="onLoad" id="linearGradient3" xlink:show="other" spreadMethod="pad">
                <stop stop-opacity="1" stop-color="white" offset="0%"/>
                <stop stop-opacity="1" stop-color="rgb(195,209,213)" offset="100%"/>
            </linearGradient>
            <linearGradient x1="170" x2="170" y1="170" gradientUnits="userSpaceOnUse" y2="220" xlink:type="simple" xlink:actuate="onLoad" id="linearGradient4" xlink:show="other" spreadMethod="pad">
                <stop stop-opacity="1" stop-color="white" offset="0%"/>
                <stop stop-opacity="1" stop-color="rgb(195,215,221)" offset="100%"/>
            </linearGradient>
            <linearGradient x1="330" x2="330" y1="10" gradientUnits="userSpaceOnUse" y2="110" xlink:type="simple" xlink:actuate="onLoad" id="linearGradient5" xlink:show="other" spreadMethod="pad">
                <stop stop-opacity="1" stop-color="white" offset="0%"/>
                <stop stop-opacity="1" stop-color="rgb(195,209,213)" offset="100%"/>
            </linearGradient>
            <linearGradient x1="330" x2="330" y1="170" gradientUnits="userSpaceOnUse" y2="220" xlink:type="simple" xlink:actuate="onLoad" id="linearGradient6" xlink:show="other" spreadMethod="pad">
                <stop stop-opacity="1" stop-color="white" offset="0%"/>
                <stop stop-opacity="1" stop-color="rgb(195,215,221)" offset="100%"/>
            </linearGradient>
            <linearGradient x1="490" x2="490" y1="10" gradientUnits="userSpaceOnUse" y2="110" xlink:type="simple" xlink:actuate="onLoad" id="linearGradient7" xlink:show="other" spreadMethod="pad">
                <stop stop-opacity="1" stop-color="white" offset="0%"/>
                <stop stop-opacity="1" stop-color="rgb(195,209,213)" offset="100%"/>
            </linearGradient>
            <linearGradient x1="490" x2="490" y1="170" gradientUnits="userSpaceOnUse" y2="220" xlink:type="simple" xlink:actuate="onLoad" id="linearGradient8" xlink:show="other" spreadMethod="pad">
                <stop stop-opacity="1" stop-color="white" offset="0%"/>
                <stop stop-opacity="1" stop-color="rgb(195,215,221)" offset="100%"/>
            </linearGradient>
            <linearGradient x1="650" x2="650" y1="10" gradientUnits="userSpaceOnUse" y2="110" xlink:type="simple" xlink:actuate="onLoad" id="linearGradient9" xlink:show="other" spreadMethod="pad">
                <stop stop-opacity="1" stop-color="white" offset="0%"/>
                <stop stop-opacity="1" stop-color="rgb(195,209,213)" offset="100%"/>
            </linearGradient>
            <linearGradient x1="650" x2="650" y1="170" gradientUnits="userSpaceOnUse" y2="220" xlink:type="simple" xlink:actuate="onLoad" id="linearGradient10" xlink:show="other" spreadMethod="pad">
                <stop stop-opacity="1" stop-color="white" offset="0%"/>
                <stop stop-opacity="1" stop-color="rgb(195,215,221)" offset="100%"/>
            </linearGradient>
            <linearGradient x1="810" x2="810" y1="10" gradientUnits="userSpaceOnUse" y2="110" xlink:type="simple" xlink:actuate="onLoad" id="linearGradient11" xlink:show="other" spreadMethod="pad">
                <stop stop-opacity="1" stop-color="white" offset="0%"/>
                <stop stop-opacity="1" stop-color="rgb(195,209,213)" offset="100%"/>
            </linearGradient>
            <linearGradient x1="810" x2="810" y1="170" gradientUnits="userSpaceOnUse" y2="220" xlink:type="simple" xlink:actuate="onLoad" id="linearGradient12" xlink:show="other" spreadMethod="pad">
                <stop stop-opacity="1" stop-color="white" offset="0%"/>
                <stop stop-opacity="1" stop-color="rgb(195,215,221)" offset="100%"/>
            </linearGradient>
            <linearGradient x1="970" x2="970" y1="10" gradientUnits="userSpaceOnUse" y2="110" xlink:type="simple" xlink:actuate="onLoad" id="linearGradient13" xlink:show="other" spreadMethod="pad">
                <stop stop-opacity="1" stop-color="white" offset="0%"/>
                <stop stop-opacity="1" stop-color="rgb(195,209,213)" offset="100%"/>
            </linearGradient>
            <linearGradient x1="970" x2="970" y1="170" gradientUnits="userSpaceOnUse" y2="220" xlink:type="simple" xlink:actuate="onLoad" id="linearGradient14" xlink:show="other" spreadMethod="pad">
                <stop stop-opacity="1" stop-color="white" offset="0%"/>
                <stop stop-opacity="1" stop-color="rgb(195,215,221)" offset="100%"/>
            </linearGradient>
            <linearGradient x1="1130" x2="1130" y1="10" gradientUnits="userSpaceOnUse" y2="110" xlink:type="simple" xlink:actuate="onLoad" id="linearGradient15" xlink:show="other" spreadMethod="pad">
                <stop stop-opacity="1" stop-color="white" offset="0%"/>
                <stop stop-opacity="1" stop-color="rgb(195,209,213)" offset="100%"/>
            </linearGradient>
            <linearGradient x1="1130" x2="1130" y1="170" gradientUnits="userSpaceOnUse" y2="220" xlink:type="simple" xlink:actuate="onLoad" id="linearGradient16" xlink:show="other" spreadMethod="pad">
                <stop stop-opacity="1" stop-color="white" offset="0%"/>
                <stop stop-opacity="1" stop-color="rgb(195,215,221)" offset="100%"/>
            </linearGradient>
            <clipPath clipPathUnits="userSpaceOnUse" id="clipPath1">
                <path d="M10 10 L10 109 L109 109 L109 10 Z"/>
            </clipPath>
            <clipPath clipPathUnits="userSpaceOnUse" id="clipPath2">
                <path d="M25 12 L96 12 L96 29 L25 29 L25 12 Z"/>
            </clipPath>
            <clipPath clipPathUnits="userSpaceOnUse" id="clipPath3">
                <path d="M36 28 L86 28 L86 45 L36 45 L36 28 Z"/>
            </clipPath>
            <clipPath clipPathUnits="userSpaceOnUse" id="clipPath4">
                <path d="M10 44 L111 44 L111 78 L10 78 L10 44 Z"/>
            </clipPath>
            <clipPath clipPathUnits="userSpaceOnUse" id="clipPath5">
                <path d="M10 77 L111 77 L111 111 L10 111 L10 77 Z"/>
            </clipPath>
            <clipPath clipPathUnits="userSpaceOnUse" id="clipPath6">
                <path d="M9 9 L111 9 L111 111 L9 111 L9 9 Z"/>
            </clipPath>
            <clipPath clipPathUnits="userSpaceOnUse" id="clipPath7">
                <path d="M10 170 L10 219 L109 219 L109 170 Z"/>
            </clipPath>
            <clipPath clipPathUnits="userSpaceOnUse" id="clipPath8">
                <path d="M27 179 L94 179 L94 196 L27 196 L27 179 Z"/>
            </clipPath>
            <clipPath clipPathUnits="userSpaceOnUse" id="clipPath9">
                <path d="M22 195 L99 195 L99 212 L22 212 L22 195 Z"/>
            </clipPath>
            <clipPath clipPathUnits="userSpaceOnUse" id="clipPath10">
                <path d="M9 169 L111 169 L111 221 L9 221 L9 169 Z"/>
            </clipPath>
            <clipPath clipPathUnits="userSpaceOnUse" id="clipPath11">
                <path d="M170 10 L170 109 L269 109 L269 10 Z"/>
            </clipPath>
            <clipPath clipPathUnits="userSpaceOnUse" id="clipPath12">
                <path d="M185 12 L256 12 L256 29 L185 29 L185 12 Z"/>
            </clipPath>
            <clipPath clipPathUnits="userSpaceOnUse" id="clipPath13">
                <path d="M181 28 L260 28 L260 45 L181 45 L181 28 Z"/>
            </clipPath>
            <clipPath clipPathUnits="userSpaceOnUse" id="clipPath14">
                <path d="M170 44 L271 44 L271 78 L170 78 L170 44 Z"/>
            </clipPath>
            <clipPath clipPathUnits="userSpaceOnUse" id="clipPath15">
                <path d="M170 77 L271 77 L271 111 L170 111 L170 77 Z"/>
            </clipPath>
            <clipPath clipPathUnits="userSpaceOnUse" id="clipPath16">
                <path d="M169 9 L271 9 L271 111 L169 111 L169 9 Z"/>
            </clipPath>
            <clipPath clipPathUnits="userSpaceOnUse" id="clipPath17">
                <path d="M170 170 L170 219 L269 219 L269 170 Z"/>
            </clipPath>
            <clipPath clipPathUnits="userSpaceOnUse" id="clipPath18">
                <path d="M187 179 L254 179 L254 196 L187 196 L187 179 Z"/>
            </clipPath>
            <clipPath clipPathUnits="userSpaceOnUse" id="clipPath19">
                <path d="M192 195 L249 195 L249 212 L192 212 L192 195 Z"/>
            </clipPath>
            <clipPath clipPathUnits="userSpaceOnUse" id="clipPath20">
                <path d="M169 169 L271 169 L271 221 L169 221 L169 169 Z"/>
            </clipPath>
            <clipPath clipPathUnits="userSpaceOnUse" id="clipPath21">
                <path d="M330 10 L330 109 L429 109 L429 10 Z"/>
            </clipPath>
            <clipPath clipPathUnits="userSpaceOnUse" id="clipPath22">
                <path d="M345 12 L416 12 L416 29 L345 29 L345 12 Z"/>
            </clipPath>
            <clipPath clipPathUnits="userSpaceOnUse" id="clipPath23">
                <path d="M361 28 L401 28 L401 45 L361 45 L361 28 Z"/>
            </clipPath>
            <clipPath clipPathUnits="userSpaceOnUse" id="clipPath24">
                <path d="M330 44 L431 44 L431 78 L330 78 L330 44 Z"/>
            </clipPath>
            <clipPath clipPathUnits="userSpaceOnUse" id="clipPath25">
                <path d="M330 77 L431 77 L431 111 L330 111 L330 77 Z"/>
            </clipPath>
            <clipPath clipPathUnits="userSpaceOnUse" id="clipPath26">
                <path d="M329 9 L431 9 L431 111 L329 111 L329 9 Z"/>
            </clipPath>
            <clipPath clipPathUnits="userSpaceOnUse" id="clipPath27">
                <path d="M330 170 L330 219 L429 219 L429 170 Z"/>
            </clipPath>
            <clipPath clipPathUnits="userSpaceOnUse" id="clipPath28">
                <path d="M347 179 L414 179 L414 196 L347 196 L347 179 Z"/>
            </clipPath>
            <clipPath clipPathUnits="userSpaceOnUse" id="clipPath29">
                <path d="M347 195 L415 195 L415 212 L347 212 L347 195 Z"/>
            </clipPath>
            <clipPath clipPathUnits="userSpaceOnUse" id="clipPath30">
                <path d="M329 169 L431 169 L431 221 L329 221 L329 169 Z"/>
            </clipPath>
            <clipPath clipPathUnits="userSpaceOnUse" id="clipPath31">
                <path d="M490 10 L490 109 L589 109 L589 10 Z"/>
            </clipPath>
            <clipPath clipPathUnits="userSpaceOnUse" id="clipPath32">
                <path d="M505 12 L576 12 L576 29 L505 29 L505 12 Z"/>
            </clipPath>
            <clipPath clipPathUnits="userSpaceOnUse" id="clipPath33">
                <path d="M517 28 L564 28 L564 45 L517 45 L517 28 Z"/>
            </clipPath>
            <clipPath clipPathUnits="userSpaceOnUse" id="clipPath34">
                <path d="M490 44 L591 44 L591 78 L490 78 L490 44 Z"/>
            </clipPath>
            <clipPath clipPathUnits="userSpaceOnUse" id="clipPath35">
                <path d="M490 77 L591 77 L591 111 L490 111 L490 77 Z"/>
            </clipPath>
            <clipPath clipPathUnits="userSpaceOnUse" id="clipPath36">
                <path d="M489 9 L591 9 L591 111 L489 111 L489 9 Z"/>
            </clipPath>
            <clipPath clipPathUnits="userSpaceOnUse" id="clipPath37">
                <path d="M490 170 L490 219 L589 219 L589 170 Z"/>
            </clipPath>
            <clipPath clipPathUnits="userSpaceOnUse" id="clipPath38">
                <path d="M507 179 L574 179 L574 196 L507 196 L507 179 Z"/>
            </clipPath>
            <clipPath clipPathUnits="userSpaceOnUse" id="clipPath39">
                <path d="M512 195 L569 195 L569 212 L512 212 L512 195 Z"/>
            </clipPath>
            <clipPath clipPathUnits="userSpaceOnUse" id="clipPath40">
                <path d="M489 169 L591 169 L591 221 L489 221 L489 169 Z"/>
            </clipPath>
            <clipPath clipPathUnits="userSpaceOnUse" id="clipPath41">
                <path d="M650 10 L650 109 L749 109 L749 10 Z"/>
            </clipPath>
            <clipPath clipPathUnits="userSpaceOnUse" id="clipPath42">
                <path d="M665 12 L736 12 L736 29 L665 29 L665 12 Z"/>
            </clipPath>
            <clipPath clipPathUnits="userSpaceOnUse" id="clipPath43">
                <path d="M675 28 L727 28 L727 45 L675 45 L675 28 Z"/>
            </clipPath>
            <clipPath clipPathUnits="userSpaceOnUse" id="clipPath44">
                <path d="M650 44 L751 44 L751 78 L650 78 L650 44 Z"/>
            </clipPath>
            <clipPath clipPathUnits="userSpaceOnUse" id="clipPath45">
                <path d="M650 77 L751 77 L751 111 L650 111 L650 77 Z"/>
            </clipPath>
            <clipPath clipPathUnits="userSpaceOnUse" id="clipPath46">
                <path d="M649 9 L751 9 L751 111 L649 111 L649 9 Z"/>
            </clipPath>
            <clipPath clipPathUnits="userSpaceOnUse" id="clipPath47">
                <path d="M650 170 L650 219 L749 219 L749 170 Z"/>
            </clipPath>
            <clipPath clipPathUnits="userSpaceOnUse" id="clipPath48">
                <path d="M667 179 L734 179 L734 196 L667 196 L667 179 Z"/>
            </clipPath>
            <clipPath clipPathUnits="userSpaceOnUse" id="clipPath49">
                <path d="M672 195 L729 195 L729 212 L672 212 L672 195 Z"/>
            </clipPath>
            <clipPath clipPathUnits="userSpaceOnUse" id="clipPath50">
                <path d="M649 169 L751 169 L751 221 L649 221 L649 169 Z"/>
            </clipPath>
            <clipPath clipPathUnits="userSpaceOnUse" id="clipPath51">
                <path d="M810 10 L810 109 L909 109 L909 10 Z"/>
            </clipPath>
            <clipPath clipPathUnits="userSpaceOnUse" id="clipPath52">
                <path d="M825 12 L896 12 L896 29 L825 29 L825 12 Z"/>
            </clipPath>
            <clipPath clipPathUnits="userSpaceOnUse" id="clipPath53">
                <path d="M828 28 L893 28 L893 45 L828 45 L828 28 Z"/>
            </clipPath>
            <clipPath clipPathUnits="userSpaceOnUse" id="clipPath54">
                <path d="M810 44 L911 44 L911 78 L810 78 L810 44 Z"/>
            </clipPath>
            <clipPath clipPathUnits="userSpaceOnUse" id="clipPath55">
                <path d="M810 77 L911 77 L911 111 L810 111 L810 77 Z"/>
            </clipPath>
            <clipPath clipPathUnits="userSpaceOnUse" id="clipPath56">
                <path d="M809 9 L911 9 L911 111 L809 111 L809 9 Z"/>
            </clipPath>
            <clipPath clipPathUnits="userSpaceOnUse" id="clipPath57">
                <path d="M810 170 L810 219 L909 219 L909 170 Z"/>
            </clipPath>
            <clipPath clipPathUnits="userSpaceOnUse" id="clipPath58">
                <path d="M826 179 L895 179 L895 196 L826 196 L826 179 Z"/>
            </clipPath>
            <clipPath clipPathUnits="userSpaceOnUse" id="clipPath59">
                <path d="M834 195 L887 195 L887 212 L834 212 L834 195 Z"/>
            </clipPath>
            <clipPath clipPathUnits="userSpaceOnUse" id="clipPath60">
                <path d="M809 169 L911 169 L911 221 L809 221 L809 169 Z"/>
            </clipPath>
            <clipPath clipPathUnits="userSpaceOnUse" id="clipPath61">
                <path d="M970 10 L970 109 L1069 109 L1069 10 Z"/>
            </clipPath>
            <clipPath clipPathUnits="userSpaceOnUse" id="clipPath62">
                <path d="M985 12 L1056 12 L1056 29 L985 29 L985 12 Z"/>
            </clipPath>
            <clipPath clipPathUnits="userSpaceOnUse" id="clipPath63">
                <path d="M1007 28 L1034 28 L1034 45 L1007 45 L1007 28 Z"/>
            </clipPath>
            <clipPath clipPathUnits="userSpaceOnUse" id="clipPath64">
                <path d="M970 44 L1071 44 L1071 78 L970 78 L970 44 Z"/>
            </clipPath>
            <clipPath clipPathUnits="userSpaceOnUse" id="clipPath65">
                <path d="M970 77 L1071 77 L1071 111 L970 111 L970 77 Z"/>
            </clipPath>
            <clipPath clipPathUnits="userSpaceOnUse" id="clipPath66">
                <path d="M969 9 L1071 9 L1071 111 L969 111 L969 9 Z"/>
            </clipPath>
            <clipPath clipPathUnits="userSpaceOnUse" id="clipPath67">
                <path d="M970 170 L970 219 L1069 219 L1069 170 Z"/>
            </clipPath>
            <clipPath clipPathUnits="userSpaceOnUse" id="clipPath68">
                <path d="M987 179 L1054 179 L1054 196 L987 196 L987 179 Z"/>
            </clipPath>
            <clipPath clipPathUnits="userSpaceOnUse" id="clipPath69">
                <path d="M1006 195 L1036 195 L1036 212 L1006 212 L1006 195 Z"/>
            </clipPath>
            <clipPath clipPathUnits="userSpaceOnUse" id="clipPath70">
                <path d="M969 169 L1071 169 L1071 221 L969 221 L969 169 Z"/>
            </clipPath>
            <clipPath clipPathUnits="userSpaceOnUse" id="clipPath71">
                <path d="M1130 10 L1130 109 L1229 109 L1229 10 Z"/>
            </clipPath>
            <clipPath clipPathUnits="userSpaceOnUse" id="clipPath72">
                <path d="M1145 12 L1216 12 L1216 29 L1145 29 L1145 12 Z"/>
            </clipPath>
            <clipPath clipPathUnits="userSpaceOnUse" id="clipPath73">
                <path d="M1153 28 L1209 28 L1209 45 L1153 45 L1153 28 Z"/>
            </clipPath>
            <clipPath clipPathUnits="userSpaceOnUse" id="clipPath74">
                <path d="M1130 44 L1231 44 L1231 78 L1130 78 L1130 44 Z"/>
            </clipPath>
            <clipPath clipPathUnits="userSpaceOnUse" id="clipPath75">
                <path d="M1130 77 L1231 77 L1231 111 L1130 111 L1130 77 Z"/>
            </clipPath>
            <clipPath clipPathUnits="userSpaceOnUse" id="clipPath76">
                <path d="M1129 9 L1231 9 L1231 111 L1129 111 L1129 9 Z"/>
            </clipPath>
            <clipPath clipPathUnits="userSpaceOnUse" id="clipPath77">
                <path d="M1130 170 L1130 219 L1229 219 L1229 170 Z"/>
            </clipPath>
            <clipPath clipPathUnits="userSpaceOnUse" id="clipPath78">
                <path d="M1147 179 L1214 179 L1214 196 L1147 196 L1147 179 Z"/>
            </clipPath>
            <clipPath clipPathUnits="userSpaceOnUse" id="clipPath79">
                <path d="M1166 195 L1196 195 L1196 212 L1166 212 L1166 195 Z"/>
            </clipPath>
            <clipPath clipPathUnits="userSpaceOnUse" id="clipPath80">
                <path d="M1129 169 L1231 169 L1231 221 L1129 221 L1129 169 Z"/>
            </clipPath>
            <clipPath clipPathUnits="userSpaceOnUse" id="clipPath81">
                <path d="M-1 -1 L1241 -1 L1241 231 L-1 231 L-1 -1 Z"/>
            </clipPath>
            <clipPath clipPathUnits="userSpaceOnUse" id="clipPath82">
                <path d="M54 154 L67 154 L67 172 L54 172 L54 154 Z"/>
            </clipPath>
            <clipPath clipPathUnits="userSpaceOnUse" id="clipPath83">
                <path d="M214 154 L227 154 L227 172 L214 172 L214 154 Z"/>
            </clipPath>
            <clipPath clipPathUnits="userSpaceOnUse" id="clipPath84">
                <path d="M374 154 L387 154 L387 172 L374 172 L374 154 Z"/>
            </clipPath>
            <clipPath clipPathUnits="userSpaceOnUse" id="clipPath85">
                <path d="M534 154 L547 154 L547 172 L534 172 L534 154 Z"/>
            </clipPath>
            <clipPath clipPathUnits="userSpaceOnUse" id="clipPath86">
                <path d="M694 154 L707 154 L707 172 L694 172 L694 154 Z"/>
            </clipPath>
            <clipPath clipPathUnits="userSpaceOnUse" id="clipPath87">
                <path d="M854 154 L867 154 L867 172 L854 172 L854 154 Z"/>
            </clipPath>
            <clipPath clipPathUnits="userSpaceOnUse" id="clipPath88">
                <path d="M1014 154 L1027 154 L1027 172 L1014 172 L1014 154 Z"/>
            </clipPath>
            <clipPath clipPathUnits="userSpaceOnUse" id="clipPath89">
                <path d="M1174 154 L1187 154 L1187 172 L1174 172 L1174 154 Z"/>
            </clipPath>
        </defs>
        <g fill="url(#linearGradient1)" font-family="'Segoe UI'" stroke-linejoin="round" stroke="url(#linearGradient1)" stroke-width="0" stroke-miterlimit="0">
            <rect x="10" y="10" clip-path="url(#clipPath1)" width="100" height="100" stroke="none"/>
            <text x="26" y="26" clip-path="url(#clipPath2)" fill="black" stroke="none" xml:space="preserve">«Stereotype»</text>
            <text x="37" y="42" clip-path="url(#clipPath3)" fill="black" stroke="none" xml:space="preserve">Conform</text>
        </g>
        <g stroke-width="1.1" font-family="'Segoe UI'" stroke-linecap="butt">
            <line clip-path="url(#clipPath4)" fill="none" x1="10" x2="110" y1="45" y2="45"/>
            <line clip-path="url(#clipPath5)" fill="none" x1="10" x2="110" y1="78" y2="78"/>
            <rect x="10" y="10" clip-path="url(#clipPath6)" fill="none" width="99" rx="0" ry="0" height="99"/>
            <rect x="10" y="170" clip-path="url(#clipPath7)" fill="url(#linearGradient2)" width="100" height="50" stroke="none"/>
            <text xml:space="preserve" x="28" y="193" clip-path="url(#clipPath8)" stroke="none">«Metaclass»</text>
            <text xml:space="preserve" x="23" y="209" clip-path="url(#clipPath9)" stroke="none">Generalization</text>
            <rect x="10" y="170" clip-path="url(#clipPath10)" fill="none" width="99" rx="0" ry="0" height="49"/>
            <rect x="170" y="10" clip-path="url(#clipPath11)" fill="url(#linearGradient3)" width="100" height="100" stroke="none"/>
            <text xml:space="preserve" x="186" y="26" clip-path="url(#clipPath12)" stroke="none">«Stereotype»</text>
            <text xml:space="preserve" x="182" y="42" clip-path="url(#clipPath13)" stroke="none">ElementGroup</text>
            <line clip-path="url(#clipPath14)" fill="none" x1="170" x2="270" y1="45" y2="45"/>
            <line clip-path="url(#clipPath15)" fill="none" x1="170" x2="270" y1="78" y2="78"/>
            <rect x="170" y="10" clip-path="url(#clipPath16)" fill="none" width="99" rx="0" ry="0" height="99"/>
            <rect x="170" y="170" clip-path="url(#clipPath17)" fill="url(#linearGradient4)" width="100" height="50" stroke="none"/>
            <text xml:space="preserve" x="188" y="193" clip-path="url(#clipPath18)" stroke="none">«Metaclass»</text>
            <text xml:space="preserve" x="193" y="209" clip-path="url(#clipPath19)" stroke="none">Comment</text>
            <rect x="170" y="170" clip-path="url(#clipPath20)" fill="none" width="99" rx="0" ry="0" height="49"/>
            <rect x="330" y="10" clip-path="url(#clipPath21)" fill="url(#linearGradient5)" width="100" height="100" stroke="none"/>
            <text xml:space="preserve" x="346" y="26" clip-path="url(#clipPath22)" stroke="none">«Stereotype»</text>
            <text xml:space="preserve" x="362" y="42" clip-path="url(#clipPath23)" stroke="none">Expose</text>
            <line clip-path="url(#clipPath24)" fill="none" x1="330" x2="430" y1="45" y2="45"/>
            <line clip-path="url(#clipPath25)" fill="none" x1="330" x2="430" y1="78" y2="78"/>
            <rect x="330" y="10" clip-path="url(#clipPath26)" fill="none" width="99" rx="0" ry="0" height="99"/>
            <rect x="330" y="170" clip-path="url(#clipPath27)" fill="url(#linearGradient6)" width="100" height="50" stroke="none"/>
            <text xml:space="preserve" x="348" y="193" clip-path="url(#clipPath28)" stroke="none">«Metaclass»</text>
            <text xml:space="preserve" x="348" y="209" clip-path="url(#clipPath29)" stroke="none">Dependency</text>
            <rect x="330" y="170" clip-path="url(#clipPath30)" fill="none" width="99" rx="0" ry="0" height="49"/>
            <rect x="490" y="10" clip-path="url(#clipPath31)" fill="url(#linearGradient7)" width="100" height="100" stroke="none"/>
            <text xml:space="preserve" x="506" y="26" clip-path="url(#clipPath32)" stroke="none">«Stereotype»</text>
            <text xml:space="preserve" x="518" y="42" clip-path="url(#clipPath33)" stroke="none">Problem</text>
            <line clip-path="url(#clipPath34)" fill="none" x1="490" x2="590" y1="45" y2="45"/>
            <line clip-path="url(#clipPath35)" fill="none" x1="490" x2="590" y1="78" y2="78"/>
            <rect x="490" y="10" clip-path="url(#clipPath36)" fill="none" width="99" rx="0" ry="0" height="99"/>
            <rect x="490" y="170" clip-path="url(#clipPath37)" fill="url(#linearGradient8)" width="100" height="50" stroke="none"/>
            <text xml:space="preserve" x="508" y="193" clip-path="url(#clipPath38)" stroke="none">«Metaclass»</text>
            <text xml:space="preserve" x="513" y="209" clip-path="url(#clipPath39)" stroke="none">Comment</text>
            <rect x="490" y="170" clip-path="url(#clipPath40)" fill="none" width="99" rx="0" ry="0" height="49"/>
            <rect x="650" y="10" clip-path="url(#clipPath41)" fill="url(#linearGradient9)" width="100" height="100" stroke="none"/>
            <text xml:space="preserve" x="666" y="26" clip-path="url(#clipPath42)" stroke="none">«Stereotype»</text>
            <text xml:space="preserve" x="676" y="42" clip-path="url(#clipPath43)" stroke="none">Rationale</text>
            <line clip-path="url(#clipPath44)" fill="none" x1="650" x2="750" y1="45" y2="45"/>
            <line clip-path="url(#clipPath45)" fill="none" x1="650" x2="750" y1="78" y2="78"/>
            <rect x="650" y="10" clip-path="url(#clipPath46)" fill="none" width="99" rx="0" ry="0" height="99"/>
            <rect x="650" y="170" clip-path="url(#clipPath47)" fill="url(#linearGradient10)" width="100" height="50" stroke="none"/>
            <text xml:space="preserve" x="668" y="193" clip-path="url(#clipPath48)" stroke="none">«Metaclass»</text>
            <text xml:space="preserve" x="673" y="209" clip-path="url(#clipPath49)" stroke="none">Comment</text>
            <rect x="650" y="170" clip-path="url(#clipPath50)" fill="none" width="99" rx="0" ry="0" height="49"/>
            <rect x="810" y="10" clip-path="url(#clipPath51)" fill="url(#linearGradient11)" width="100" height="100" stroke="none"/>
            <text xml:space="preserve" x="826" y="26" clip-path="url(#clipPath52)" stroke="none">«Stereotype»</text>
            <text xml:space="preserve" x="829" y="42" clip-path="url(#clipPath53)" stroke="none">Stakeholder</text>
            <line clip-path="url(#clipPath54)" fill="none" x1="810" x2="910" y1="45" y2="45"/>
            <line clip-path="url(#clipPath55)" fill="none" x1="810" x2="910" y1="78" y2="78"/>
            <rect x="810" y="10" clip-path="url(#clipPath56)" fill="none" width="99" rx="0" ry="0" height="99"/>
            <rect x="810" y="170" clip-path="url(#clipPath57)" fill="url(#linearGradient12)" width="100" height="50" stroke="none"/>
            <text x="827" y="193" clip-path="url(#clipPath58)" font-style="italic" stroke="none" xml:space="preserve">«Metaclass»</text>
            <text x="835" y="209" clip-path="url(#clipPath59)" font-style="italic" stroke="none" xml:space="preserve">Classifier</text>
            <rect x="810" y="170" clip-path="url(#clipPath60)" fill="none" width="99" rx="0" ry="0" height="49"/>
            <rect x="970" y="10" clip-path="url(#clipPath61)" fill="url(#linearGradient13)" width="100" height="100" stroke="none"/>
            <text xml:space="preserve" x="986" y="26" clip-path="url(#clipPath62)" stroke="none">«Stereotype»</text>
            <text xml:space="preserve" x="1008" y="42" clip-path="url(#clipPath63)" stroke="none">View</text>
            <line clip-path="url(#clipPath64)" fill="none" x1="970" x2="1070" y1="45" y2="45"/>
            <line clip-path="url(#clipPath65)" fill="none" x1="970" x2="1070" y1="78" y2="78"/>
            <rect x="970" y="10" clip-path="url(#clipPath66)" fill="none" width="99" rx="0" ry="0" height="99"/>
            <rect x="970" y="170" clip-path="url(#clipPath67)" fill="url(#linearGradient14)" width="100" height="50" stroke="none"/>
            <text xml:space="preserve" x="988" y="193" clip-path="url(#clipPath68)" stroke="none">«Metaclass»</text>
            <text xml:space="preserve" x="1007" y="209" clip-path="url(#clipPath69)" stroke="none">Class</text>
            <rect x="970" y="170" clip-path="url(#clipPath70)" fill="none" width="99" rx="0" ry="0" height="49"/>
            <rect x="1130" y="10" clip-path="url(#clipPath71)" fill="url(#linearGradient15)" width="100" height="100" stroke="none"/>
            <text xml:space="preserve" x="1146" y="26" clip-path="url(#clipPath72)" stroke="none">«Stereotype»</text>
            <text xml:space="preserve" x="1154" y="42" clip-path="url(#clipPath73)" stroke="none">Viewpoint</text>
            <line clip-path="url(#clipPath74)" fill="none" x1="1130" x2="1230" y1="45" y2="45"/>
            <line clip-path="url(#clipPath75)" fill="none" x1="1130" x2="1230" y1="78" y2="78"/>
            <rect x="1130" y="10" clip-path="url(#clipPath76)" fill="none" width="99" rx="0" ry="0" height="99"/>
            <rect x="1130" y="170" clip-path="url(#clipPath77)" fill="url(#linearGradient16)" width="100" height="50" stroke="none"/>
            <text xml:space="preserve" x="1148" y="193" clip-path="url(#clipPath78)" stroke="none">«Metaclass»</text>
            <text xml:space="preserve" x="1167" y="209" clip-path="url(#clipPath79)" stroke="none">Class</text>
            <rect x="1130" y="170" clip-path="url(#clipPath80)" fill="none" width="99" rx="0" ry="0" height="49"/>
            <line clip-path="url(#clipPath81)" fill="none" text-rendering="optimizeLegibility" x1="60" x2="60" y1="110" y2="170"/>
            <polygon text-rendering="optimizeLegibility" clip-path="url(#clipPath82)" points=" 60 170 55 155 65 155" stroke="none"/>
            <polygon text-rendering="optimizeLegibility" fill="none" clip-path="url(#clipPath82)" points=" 60 170 55 155 65 155"/>
            <line clip-path="url(#clipPath81)" fill="none" text-rendering="optimizeLegibility" x1="220" x2="220" y1="110" y2="170"/>
            <polygon text-rendering="optimizeLegibility" clip-path="url(#clipPath83)" points=" 220 170 215 155 225 155" stroke="none"/>
            <polygon text-rendering="optimizeLegibility" fill="none" clip-path="url(#clipPath83)" points=" 220 170 215 155 225 155"/>
            <line clip-path="url(#clipPath81)" fill="none" text-rendering="optimizeLegibility" x1="380" x2="380" y1="110" y2="170"/>
            <polygon text-rendering="optimizeLegibility" clip-path="url(#clipPath84)" points=" 380 170 375 155 385 155" stroke="none"/>
            <polygon text-rendering="optimizeLegibility" fill="none" clip-path="url(#clipPath84)" points=" 380 170 375 155 385 155"/>
            <line clip-path="url(#clipPath81)" fill="none" text-rendering="optimizeLegibility" x1="540" x2="540" y1="110" y2="170"/>
            <polygon text-rendering="optimizeLegibility" clip-path="url(#clipPath85)" points=" 540 170 535 155 545 155" stroke="none"/>
            <polygon text-rendering="optimizeLegibility" fill="none" clip-path="url(#clipPath85)" points=" 540 170 535 155 545 155"/>
            <line clip-path="url(#clipPath81)" fill="none" text-rendering="optimizeLegibility" x1="700" x2="700" y1="110" y2="170"/>
            <polygon text-rendering="optimizeLegibility" clip-path="url(#clipPath86)" points=" 700 170 695 155 705 155" stroke="none"/>
            <polygon text-rendering="optimizeLegibility" fill="none" clip-path="url(#clipPath86)" points=" 700 170 695 155 705 155"/>
            <line clip-path="url(#clipPath81)" fill="none" text-rendering="optimizeLegibility" x1="860" x2="860" y1="110" y2="170"/>
            <polygon text-rendering="optimizeLegibility" clip-path="url(#clipPath87)" points=" 860 170 855 155 865 155" stroke="none"/>
            <polygon text-rendering="optimizeLegibility" fill="none" clip-path="url(#clipPath87)" points=" 860 170 855 155 865 155"/>
            <line clip-path="url(#clipPath81)" fill="none" text-rendering="optimizeLegibility" x1="1020" x2="1020" y1="110" y2="170"/>
            <polygon text-rendering="optimizeLegibility" clip-path="url(#clipPath88)" points=" 1020 170 1015 155 1025 155" stroke="none"/>
            <polygon text-rendering="optimizeLegibility" fill="none" clip-path="url(#clipPath88)" points=" 1020 170 1015 155 1025 155"/>
            <line clip-path="url(#clipPath81)" fill="none" text-rendering="optimizeLegibility" x1="1180" x2="1180" y1="110" y2="170"/>
            <polygon text-rendering="optimizeLegibility" clip-path="url(#clipPath89)" points=" 1180 170 1175 155 1185 155" stroke="none"/>
            <polygon text-rendering="optimizeLegibility" fill="none" clip-path="url(#clipPath89)" points=" 1180 170 1175 155 1185 155"/>
        </g>
    </g>
    <rect x="10" y="10" fill-opacity="0" width="100" title="&#10;            A Conform relationship is a dependency between a view and a viewpoint. The view conforms to the specified rules and conventions detailed in the viewpoint. Conform is a specialization of the UML dependency, and as with other dependencies the arrow direction points from the (client/source) to the (supplier/target).&#10;          " id="Conform" height="100" stroke-opacity="0">
        <title>
            A Conform relationship is a dependency between a view and a viewpoint. The view conforms to the specified rules and conventions detailed in the viewpoint. Conform is a specialization of the UML dependency, and as with other dependencies the arrow direction points from the (client/source) to the (supplier/target).
          </title>
    </rect>
    <rect x="10" y="170" fill-opacity="0" width="100" title="A Generalization is a taxonomic relationship between a more general Classifier and a more specific Classifier. Each instance of the specific Classifier is also an instance of the general Classifier. The specific Classifier inherits the features of the more general Classifier. A Generalization is owned by the specific Classifier." id="Generalization" height="50" stroke-opacity="0">
        <title>A Generalization is a taxonomic relationship between a more general Classifier and a more specific Classifier. Each instance of the specific Classifier is also an instance of the general Classifier. The specific Classifier inherits the features of the more general Classifier. A Generalization is owned by the specific Classifier.</title>
    </rect>
    <rect x="170" y="10" fill-opacity="0" width="100" id="ElementGroup" height="100" stroke-opacity="0"/>
    <rect x="170" y="170" fill-opacity="0" width="100" title="A Comment is a textual annotation that can be attached to a set of Elements." id="Comment" height="50" stroke-opacity="0">
        <title>A Comment is a textual annotation that can be attached to a set of Elements.</title>
    </rect>
    <rect x="330" y="10" fill-opacity="0" width="100" id="Expose" height="100" stroke-opacity="0"/>
    <rect x="330" y="170" fill-opacity="0" width="100" title="A Dependency is a Relationship that signifies that a single model Element or a set of model Elements requires other model Elements for their specification or implementation. This means that the complete semantics of the client Element(s) are either semantically or structurally dependent on the definition of the supplier Element(s)." id="Dependency" height="50" stroke-opacity="0">
        <title>A Dependency is a Relationship that signifies that a single model Element or a set of model Elements requires other model Elements for their specification or implementation. This means that the complete semantics of the client Element(s) are either semantically or structurally dependent on the definition of the supplier Element(s).</title>
    </rect>
    <rect x="490" y="10" fill-opacity="0" width="100" title="&#10;            A Problem documents a deficiency, limitation, or failure of one or more model elements to satisfy a requirement or need, or other undesired outcome. It may be used to capture problems identified during analysis, design, verification, or manufacture and associate the problem with the relevant model elements. Problem is a stereotype of comment and may be attached to any other model element in the same manner as a comment.&#10;          " id="Problem" height="100" stroke-opacity="0">
        <title>
            A Problem documents a deficiency, limitation, or failure of one or more model elements to satisfy a requirement or need, or other undesired outcome. It may be used to capture problems identified during analysis, design, verification, or manufacture and associate the problem with the relevant model elements. Problem is a stereotype of comment and may be attached to any other model element in the same manner as a comment.
          </title>
    </rect>
    <rect x="490" y="170" fill-opacity="0" width="100" title="A Comment is a textual annotation that can be attached to a set of Elements." id="Comment" height="50" stroke-opacity="0">
        <title>A Comment is a textual annotation that can be attached to a set of Elements.</title>
    </rect>
    <rect x="650" y="10" fill-opacity="0" width="100" title="&#10;            A Rationale documents the justification for decisions and the requirements, design, and other decisions. A Rationale can be attached to any model element including relationships. It allows the user, for example, to specify a rationale that may reference more detailed documentation such as a trade study or analysis report. Rationale is a stereotype of comment and may be attached to any other model element in the same manner as a comment.&#10;          " id="Rationale" height="100" stroke-opacity="0">
        <title>
            A Rationale documents the justification for decisions and the requirements, design, and other decisions. A Rationale can be attached to any model element including relationships. It allows the user, for example, to specify a rationale that may reference more detailed documentation such as a trade study or analysis report. Rationale is a stereotype of comment and may be attached to any other model element in the same manner as a comment.
          </title>
    </rect>
    <rect x="650" y="170" fill-opacity="0" width="100" title="A Comment is a textual annotation that can be attached to a set of Elements." id="Comment" height="50" stroke-opacity="0">
        <title>A Comment is a textual annotation that can be attached to a set of Elements.</title>
    </rect>
    <rect x="810" y="10" fill-opacity="0" width="100" id="Stakeholder" height="100" stroke-opacity="0"/>
    <rect x="810" y="170" fill-opacity="0" width="100" title="A Classifier represents a classification of instances according to their Features." id="Classifier" height="50" stroke-opacity="0">
        <title>A Classifier represents a classification of instances according to their Features.</title>
    </rect>
    <rect x="970" y="10" fill-opacity="0" width="100" title="A View is a representation of a whole system or subsystem from the perspective of a single viewpoint. Views are allowed to import other elements including other packages and other views that conform to the viewpoint." id="View" height="100" stroke-opacity="0">
        <title>A View is a representation of a whole system or subsystem from the perspective of a single viewpoint. Views are allowed to import other elements including other packages and other views that conform to the viewpoint.</title>
    </rect>
    <rect x="970" y="170" fill-opacity="0" width="100" title="A Class classifies a set of objects and specifies the features that characterize the structure and behavior of those objects.  A Class may have an internal structure and Ports." id="Class" height="50" stroke-opacity="0">
        <title>A Class classifies a set of objects and specifies the features that characterize the structure and behavior of those objects.  A Class may have an internal structure and Ports.</title>
    </rect>
    <rect x="1130" y="10" fill-opacity="0" width="100" title="&#10;            A Viewpoint is a specification of the conventions and rules for constructing and using a view for the purpose of addressing a set of stakeholder concerns. The languages and methods for specifying a view may reference languages and methods in another viewpoint. They specify the elements expected to be represented in the view, and may be formally or informally defined. For example, the security viewpoint may require the security requirements, security functional and physical architecture, and security test cases.&#10;          " id="Viewpoint" height="100" stroke-opacity="0">
        <title>
            A Viewpoint is a specification of the conventions and rules for constructing and using a view for the purpose of addressing a set of stakeholder concerns. The languages and methods for specifying a view may reference languages and methods in another viewpoint. They specify the elements expected to be represented in the view, and may be formally or informally defined. For example, the security viewpoint may require the security requirements, security functional and physical architecture, and security test cases.
          </title>
    </rect>
    <rect x="1130" y="170" fill-opacity="0" width="100" title="A Class classifies a set of objects and specifies the features that characterize the structure and behavior of those objects.  A Class may have an internal structure and Ports." id="Class" height="50" stroke-opacity="0">
        <title>A Class classifies a set of objects and specifies the features that characterize the structure and behavior of those objects.  A Class may have an internal structure and Ports.</title>
    </rect>
</svg>
