<?xml version="1.0" encoding="UTF-8"?><svg xmlns="http://www.w3.org/2000/svg" xmlns:xlink="http://www.w3.org/1999/xlink" stroke-dasharray="none" shape-rendering="auto" font-family="'Dialog'" width="245" text-rendering="auto" fill-opacity="1" contentScriptType="text/ecmascript" color-interpolation="auto" color-rendering="auto" preserveAspectRatio="xMidYMid meet" font-size="12" viewBox="0 0 245 278" fill="black" stroke="black" image-rendering="auto" stroke-miterlimit="10" zoomAndPan="magnify" version="1.0" stroke-linecap="square" stroke-linejoin="miter" contentStyleType="text/css" font-style="normal" height="278" stroke-width="1" stroke-dashoffset="0" font-weight="normal" stroke-opacity="1">
    <!--Generated by the Batik Graphics2D SVG Generator-->
    <defs id="genericDefs"/>
    <g>
        <defs id="defs1">
            <linearGradient x1="135" x2="135" y1="168" gradientUnits="userSpaceOnUse" y2="268" xlink:type="simple" xlink:actuate="onLoad" id="linearGradient1" xlink:show="other" spreadMethod="pad">
                <stop stop-opacity="1" stop-color="white" offset="0%"/>
                <stop stop-opacity="1" stop-color="rgb(195,209,213)" offset="100%"/>
            </linearGradient>
            <linearGradient x1="10" x2="10" y1="10" gradientUnits="userSpaceOnUse" y2="60" xlink:type="simple" xlink:actuate="onLoad" id="linearGradient2" xlink:show="other" spreadMethod="pad">
                <stop stop-opacity="1" stop-color="white" offset="0%"/>
                <stop stop-opacity="1" stop-color="rgb(195,215,221)" offset="100%"/>
            </linearGradient>
            <clipPath clipPathUnits="userSpaceOnUse" id="clipPath1">
                <path d="M135 168 L135 267 L234 267 L234 168 Z"/>
            </clipPath>
            <clipPath clipPathUnits="userSpaceOnUse" id="clipPath2">
                <path d="M150 170 L221 170 L221 187 L150 187 L150 170 Z"/>
            </clipPath>
            <clipPath clipPathUnits="userSpaceOnUse" id="clipPath3">
                <path d="M143 186 L229 186 L229 203 L143 203 L143 186 Z"/>
            </clipPath>
            <clipPath clipPathUnits="userSpaceOnUse" id="clipPath4">
                <path d="M135 202 L236 202 L236 236 L135 236 L135 202 Z"/>
            </clipPath>
            <clipPath clipPathUnits="userSpaceOnUse" id="clipPath5">
                <path d="M135 235 L236 235 L236 269 L135 269 L135 235 Z"/>
            </clipPath>
            <clipPath clipPathUnits="userSpaceOnUse" id="clipPath6">
                <path d="M134 167 L236 167 L236 269 L134 269 L134 167 Z"/>
            </clipPath>
            <clipPath clipPathUnits="userSpaceOnUse" id="clipPath7">
                <path d="M10 10 L10 59 L109 59 L109 10 Z"/>
            </clipPath>
            <clipPath clipPathUnits="userSpaceOnUse" id="clipPath8">
                <path d="M27 19 L94 19 L94 36 L27 36 L27 19 Z"/>
            </clipPath>
            <clipPath clipPathUnits="userSpaceOnUse" id="clipPath9">
                <path d="M46 35 L76 35 L76 52 L46 52 L46 35 Z"/>
            </clipPath>
            <clipPath clipPathUnits="userSpaceOnUse" id="clipPath10">
                <path d="M9 9 L111 9 L111 61 L9 61 L9 9 Z"/>
            </clipPath>
            <clipPath clipPathUnits="userSpaceOnUse" id="clipPath11">
                <path d="M-1 -1 L246 -1 L246 279 L-1 279 L-1 -1 Z"/>
            </clipPath>
            <clipPath clipPathUnits="userSpaceOnUse" id="clipPath12">
                <path d="M75 59 L91 59 L91 77 L75 77 L75 59 Z"/>
            </clipPath>
        </defs>
        <g fill="url(#linearGradient1)" font-family="'Segoe UI'" stroke-linejoin="round" stroke="url(#linearGradient1)" stroke-width="0" stroke-miterlimit="0">
            <rect x="135" y="168" clip-path="url(#clipPath1)" width="100" height="100" stroke="none"/>
            <text x="151" y="184" clip-path="url(#clipPath2)" fill="black" stroke="none" xml:space="preserve">«Stereotype»</text>
            <text x="144" y="200" clip-path="url(#clipPath3)" fill="black" stroke="none" xml:space="preserve">ConstraintBlock</text>
        </g>
        <g stroke-width="1.1" font-family="'Segoe UI'" stroke-linecap="butt">
            <line clip-path="url(#clipPath4)" fill="none" x1="135" x2="235" y1="203" y2="203"/>
            <line clip-path="url(#clipPath5)" fill="none" x1="135" x2="235" y1="236" y2="236"/>
            <rect x="135" y="168" clip-path="url(#clipPath6)" fill="none" width="99" rx="0" ry="0" height="99"/>
            <rect x="10" y="10" clip-path="url(#clipPath7)" fill="url(#linearGradient2)" width="100" height="50" stroke="none"/>
            <text xml:space="preserve" x="28" y="33" clip-path="url(#clipPath8)" stroke="none">«Metaclass»</text>
            <text xml:space="preserve" x="47" y="49" clip-path="url(#clipPath9)" stroke="none">Class</text>
            <rect x="10" y="10" clip-path="url(#clipPath10)" fill="none" width="99" rx="0" ry="0" height="49"/>
            <line clip-path="url(#clipPath11)" fill="none" text-rendering="optimizeLegibility" x1="150" x2="76" y1="168" y2="60"/>
            <polygon text-rendering="optimizeLegibility" clip-path="url(#clipPath12)" points=" 76 60 89 70 80 75" stroke="none"/>
            <polygon text-rendering="optimizeLegibility" fill="none" clip-path="url(#clipPath12)" points=" 76 60 89 70 80 75"/>
        </g>
    </g>
    <rect x="135" y="168" fill-opacity="0" width="100" title="&#10;            A constraint block is a block that packages the statement of a constraint so it may be applied in a reusable way to constrain properties of other blocks. A constraint block typically defines one or more constraint parameters, which are bound to properties of other blocks in a surrounding context where the constraint is used. Binding connectors, as defined in Chapter 8: Blocks, are used to bind each parameter of the constraint block to a property in the surrounding context. All properties of a constraint block are constraint parameters, with the exception of constraint properties that hold internally nested usages of other constraint blocks.&#10;          " id="ConstraintBlock" height="100" stroke-opacity="0">
        <title>
            A constraint block is a block that packages the statement of a constraint so it may be applied in a reusable way to constrain properties of other blocks. A constraint block typically defines one or more constraint parameters, which are bound to properties of other blocks in a surrounding context where the constraint is used. Binding connectors, as defined in Chapter 8: Blocks, are used to bind each parameter of the constraint block to a property in the surrounding context. All properties of a constraint block are constraint parameters, with the exception of constraint properties that hold internally nested usages of other constraint blocks.
          </title>
    </rect>
    <rect x="10" y="10" fill-opacity="0" width="100" title="A Class classifies a set of objects and specifies the features that characterize the structure and behavior of those objects.  A Class may have an internal structure and Ports." id="Class" height="50" stroke-opacity="0">
        <title>A Class classifies a set of objects and specifies the features that characterize the structure and behavior of those objects.  A Class may have an internal structure and Ports.</title>
    </rect>
</svg>
