<?xml version="1.0" encoding="UTF-8"?><svg xmlns="http://www.w3.org/2000/svg" xmlns:xlink="http://www.w3.org/1999/xlink" stroke-dasharray="none" shape-rendering="auto" font-family="'Dialog'" width="760" text-rendering="auto" fill-opacity="1" contentScriptType="text/ecmascript" color-interpolation="auto" color-rendering="auto" preserveAspectRatio="xMidYMid meet" font-size="12" viewBox="0 0 760 230" fill="black" stroke="black" image-rendering="auto" stroke-miterlimit="10" zoomAndPan="magnify" version="1.0" stroke-linecap="square" stroke-linejoin="miter" contentStyleType="text/css" font-style="normal" height="230" stroke-width="1" stroke-dashoffset="0" font-weight="normal" stroke-opacity="1">
    <!--Generated by the Batik Graphics2D SVG Generator-->
    <defs id="genericDefs"/>
    <g>
        <defs id="defs1">
            <linearGradient x1="10" x2="10" y1="10" gradientUnits="userSpaceOnUse" y2="110" xlink:type="simple" xlink:actuate="onLoad" id="linearGradient1" xlink:show="other" spreadMethod="pad">
                <stop stop-opacity="1" stop-color="white" offset="0%"/>
                <stop stop-opacity="1" stop-color="rgb(195,209,213)" offset="100%"/>
            </linearGradient>
            <linearGradient x1="10" x2="10" y1="170" gradientUnits="userSpaceOnUse" y2="220" xlink:type="simple" xlink:actuate="onLoad" id="linearGradient2" xlink:show="other" spreadMethod="pad">
                <stop stop-opacity="1" stop-color="white" offset="0%"/>
                <stop stop-opacity="1" stop-color="rgb(195,215,221)" offset="100%"/>
            </linearGradient>
            <linearGradient x1="170" x2="170" y1="10" gradientUnits="userSpaceOnUse" y2="110" xlink:type="simple" xlink:actuate="onLoad" id="linearGradient3" xlink:show="other" spreadMethod="pad">
                <stop stop-opacity="1" stop-color="white" offset="0%"/>
                <stop stop-opacity="1" stop-color="rgb(195,209,213)" offset="100%"/>
            </linearGradient>
            <linearGradient x1="170" x2="170" y1="170" gradientUnits="userSpaceOnUse" y2="220" xlink:type="simple" xlink:actuate="onLoad" id="linearGradient4" xlink:show="other" spreadMethod="pad">
                <stop stop-opacity="1" stop-color="white" offset="0%"/>
                <stop stop-opacity="1" stop-color="rgb(195,215,221)" offset="100%"/>
            </linearGradient>
            <linearGradient x1="330" x2="330" y1="10" gradientUnits="userSpaceOnUse" y2="110" xlink:type="simple" xlink:actuate="onLoad" id="linearGradient5" xlink:show="other" spreadMethod="pad">
                <stop stop-opacity="1" stop-color="white" offset="0%"/>
                <stop stop-opacity="1" stop-color="rgb(195,209,213)" offset="100%"/>
            </linearGradient>
            <linearGradient x1="330" x2="330" y1="170" gradientUnits="userSpaceOnUse" y2="220" xlink:type="simple" xlink:actuate="onLoad" id="linearGradient6" xlink:show="other" spreadMethod="pad">
                <stop stop-opacity="1" stop-color="white" offset="0%"/>
                <stop stop-opacity="1" stop-color="rgb(195,215,221)" offset="100%"/>
            </linearGradient>
            <linearGradient x1="490" x2="490" y1="10" gradientUnits="userSpaceOnUse" y2="110" xlink:type="simple" xlink:actuate="onLoad" id="linearGradient7" xlink:show="other" spreadMethod="pad">
                <stop stop-opacity="1" stop-color="white" offset="0%"/>
                <stop stop-opacity="1" stop-color="rgb(195,209,213)" offset="100%"/>
            </linearGradient>
            <linearGradient x1="490" x2="490" y1="170" gradientUnits="userSpaceOnUse" y2="220" xlink:type="simple" xlink:actuate="onLoad" id="linearGradient8" xlink:show="other" spreadMethod="pad">
                <stop stop-opacity="1" stop-color="white" offset="0%"/>
                <stop stop-opacity="1" stop-color="rgb(195,215,221)" offset="100%"/>
            </linearGradient>
            <linearGradient x1="650" x2="650" y1="10" gradientUnits="userSpaceOnUse" y2="110" xlink:type="simple" xlink:actuate="onLoad" id="linearGradient9" xlink:show="other" spreadMethod="pad">
                <stop stop-opacity="1" stop-color="white" offset="0%"/>
                <stop stop-opacity="1" stop-color="rgb(195,209,213)" offset="100%"/>
            </linearGradient>
            <linearGradient x1="650" x2="650" y1="170" gradientUnits="userSpaceOnUse" y2="220" xlink:type="simple" xlink:actuate="onLoad" id="linearGradient10" xlink:show="other" spreadMethod="pad">
                <stop stop-opacity="1" stop-color="white" offset="0%"/>
                <stop stop-opacity="1" stop-color="rgb(195,215,221)" offset="100%"/>
            </linearGradient>
            <clipPath clipPathUnits="userSpaceOnUse" id="clipPath1">
                <path d="M10 10 L10 109 L109 109 L109 10 Z"/>
            </clipPath>
            <clipPath clipPathUnits="userSpaceOnUse" id="clipPath2">
                <path d="M25 12 L96 12 L96 29 L25 29 L25 12 Z"/>
            </clipPath>
            <clipPath clipPathUnits="userSpaceOnUse" id="clipPath3">
                <path d="M43 28 L79 28 L79 45 L43 45 L43 28 Z"/>
            </clipPath>
            <clipPath clipPathUnits="userSpaceOnUse" id="clipPath4">
                <path d="M10 44 L111 44 L111 78 L10 78 L10 44 Z"/>
            </clipPath>
            <clipPath clipPathUnits="userSpaceOnUse" id="clipPath5">
                <path d="M10 77 L111 77 L111 111 L10 111 L10 77 Z"/>
            </clipPath>
            <clipPath clipPathUnits="userSpaceOnUse" id="clipPath6">
                <path d="M9 9 L111 9 L111 111 L9 111 L9 9 Z"/>
            </clipPath>
            <clipPath clipPathUnits="userSpaceOnUse" id="clipPath7">
                <path d="M10 170 L10 219 L109 219 L109 170 Z"/>
            </clipPath>
            <clipPath clipPathUnits="userSpaceOnUse" id="clipPath8">
                <path d="M27 179 L94 179 L94 196 L27 196 L27 179 Z"/>
            </clipPath>
            <clipPath clipPathUnits="userSpaceOnUse" id="clipPath9">
                <path d="M29 195 L92 195 L92 212 L29 212 L29 195 Z"/>
            </clipPath>
            <clipPath clipPathUnits="userSpaceOnUse" id="clipPath10">
                <path d="M9 169 L111 169 L111 221 L9 221 L9 169 Z"/>
            </clipPath>
            <clipPath clipPathUnits="userSpaceOnUse" id="clipPath11">
                <path d="M170 10 L170 109 L269 109 L269 10 Z"/>
            </clipPath>
            <clipPath clipPathUnits="userSpaceOnUse" id="clipPath12">
                <path d="M185 12 L256 12 L256 29 L185 29 L185 12 Z"/>
            </clipPath>
            <clipPath clipPathUnits="userSpaceOnUse" id="clipPath13">
                <path d="M185 28 L256 28 L256 45 L185 45 L185 28 Z"/>
            </clipPath>
            <clipPath clipPathUnits="userSpaceOnUse" id="clipPath14">
                <path d="M170 44 L271 44 L271 78 L170 78 L170 44 Z"/>
            </clipPath>
            <clipPath clipPathUnits="userSpaceOnUse" id="clipPath15">
                <path d="M170 77 L271 77 L271 111 L170 111 L170 77 Z"/>
            </clipPath>
            <clipPath clipPathUnits="userSpaceOnUse" id="clipPath16">
                <path d="M169 9 L271 9 L271 111 L169 111 L169 9 Z"/>
            </clipPath>
            <clipPath clipPathUnits="userSpaceOnUse" id="clipPath17">
                <path d="M170 170 L170 219 L269 219 L269 170 Z"/>
            </clipPath>
            <clipPath clipPathUnits="userSpaceOnUse" id="clipPath18">
                <path d="M187 179 L254 179 L254 196 L187 196 L187 179 Z"/>
            </clipPath>
            <clipPath clipPathUnits="userSpaceOnUse" id="clipPath19">
                <path d="M206 195 L236 195 L236 212 L206 212 L206 195 Z"/>
            </clipPath>
            <clipPath clipPathUnits="userSpaceOnUse" id="clipPath20">
                <path d="M169 169 L271 169 L271 221 L169 221 L169 169 Z"/>
            </clipPath>
            <clipPath clipPathUnits="userSpaceOnUse" id="clipPath21">
                <path d="M330 10 L330 109 L429 109 L429 10 Z"/>
            </clipPath>
            <clipPath clipPathUnits="userSpaceOnUse" id="clipPath22">
                <path d="M345 12 L416 12 L416 29 L345 29 L345 12 Z"/>
            </clipPath>
            <clipPath clipPathUnits="userSpaceOnUse" id="clipPath23">
                <path d="M357 28 L405 28 L405 45 L357 45 L357 28 Z"/>
            </clipPath>
            <clipPath clipPathUnits="userSpaceOnUse" id="clipPath24">
                <path d="M330 44 L431 44 L431 78 L330 78 L330 44 Z"/>
            </clipPath>
            <clipPath clipPathUnits="userSpaceOnUse" id="clipPath25">
                <path d="M330 77 L431 77 L431 111 L330 111 L330 77 Z"/>
            </clipPath>
            <clipPath clipPathUnits="userSpaceOnUse" id="clipPath26">
                <path d="M329 9 L431 9 L431 111 L329 111 L329 9 Z"/>
            </clipPath>
            <clipPath clipPathUnits="userSpaceOnUse" id="clipPath27">
                <path d="M330 170 L330 219 L429 219 L429 170 Z"/>
            </clipPath>
            <clipPath clipPathUnits="userSpaceOnUse" id="clipPath28">
                <path d="M346 179 L415 179 L415 196 L346 196 L346 179 Z"/>
            </clipPath>
            <clipPath clipPathUnits="userSpaceOnUse" id="clipPath29">
                <path d="M355 195 L406 195 L406 212 L355 212 L355 195 Z"/>
            </clipPath>
            <clipPath clipPathUnits="userSpaceOnUse" id="clipPath30">
                <path d="M329 169 L431 169 L431 221 L329 221 L329 169 Z"/>
            </clipPath>
            <clipPath clipPathUnits="userSpaceOnUse" id="clipPath31">
                <path d="M490 10 L490 109 L589 109 L589 10 Z"/>
            </clipPath>
            <clipPath clipPathUnits="userSpaceOnUse" id="clipPath32">
                <path d="M505 12 L576 12 L576 29 L505 29 L505 12 Z"/>
            </clipPath>
            <clipPath clipPathUnits="userSpaceOnUse" id="clipPath33">
                <path d="M517 28 L565 28 L565 45 L517 45 L517 28 Z"/>
            </clipPath>
            <clipPath clipPathUnits="userSpaceOnUse" id="clipPath34">
                <path d="M490 44 L591 44 L591 78 L490 78 L490 44 Z"/>
            </clipPath>
            <clipPath clipPathUnits="userSpaceOnUse" id="clipPath35">
                <path d="M490 77 L591 77 L591 111 L490 111 L490 77 Z"/>
            </clipPath>
            <clipPath clipPathUnits="userSpaceOnUse" id="clipPath36">
                <path d="M489 9 L591 9 L591 111 L489 111 L489 9 Z"/>
            </clipPath>
            <clipPath clipPathUnits="userSpaceOnUse" id="clipPath37">
                <path d="M490 170 L490 219 L589 219 L589 170 Z"/>
            </clipPath>
            <clipPath clipPathUnits="userSpaceOnUse" id="clipPath38">
                <path d="M507 179 L574 179 L574 196 L507 196 L507 179 Z"/>
            </clipPath>
            <clipPath clipPathUnits="userSpaceOnUse" id="clipPath39">
                <path d="M513 195 L568 195 L568 212 L513 212 L513 195 Z"/>
            </clipPath>
            <clipPath clipPathUnits="userSpaceOnUse" id="clipPath40">
                <path d="M489 169 L591 169 L591 221 L489 221 L489 169 Z"/>
            </clipPath>
            <clipPath clipPathUnits="userSpaceOnUse" id="clipPath41">
                <path d="M650 10 L650 109 L749 109 L749 10 Z"/>
            </clipPath>
            <clipPath clipPathUnits="userSpaceOnUse" id="clipPath42">
                <path d="M665 12 L736 12 L736 29 L665 29 L665 12 Z"/>
            </clipPath>
            <clipPath clipPathUnits="userSpaceOnUse" id="clipPath43">
                <path d="M686 28 L716 28 L716 45 L686 45 L686 28 Z"/>
            </clipPath>
            <clipPath clipPathUnits="userSpaceOnUse" id="clipPath44">
                <path d="M650 44 L751 44 L751 78 L650 78 L650 44 Z"/>
            </clipPath>
            <clipPath clipPathUnits="userSpaceOnUse" id="clipPath45">
                <path d="M650 77 L751 77 L751 111 L650 111 L650 77 Z"/>
            </clipPath>
            <clipPath clipPathUnits="userSpaceOnUse" id="clipPath46">
                <path d="M649 9 L751 9 L751 111 L649 111 L649 9 Z"/>
            </clipPath>
            <clipPath clipPathUnits="userSpaceOnUse" id="clipPath47">
                <path d="M650 170 L650 219 L749 219 L749 170 Z"/>
            </clipPath>
            <clipPath clipPathUnits="userSpaceOnUse" id="clipPath48">
                <path d="M667 179 L734 179 L734 196 L667 196 L667 179 Z"/>
            </clipPath>
            <clipPath clipPathUnits="userSpaceOnUse" id="clipPath49">
                <path d="M669 195 L732 195 L732 212 L669 212 L669 195 Z"/>
            </clipPath>
            <clipPath clipPathUnits="userSpaceOnUse" id="clipPath50">
                <path d="M649 169 L751 169 L751 221 L649 221 L649 169 Z"/>
            </clipPath>
            <clipPath clipPathUnits="userSpaceOnUse" id="clipPath51">
                <path d="M-1 -1 L761 -1 L761 231 L-1 231 L-1 -1 Z"/>
            </clipPath>
            <clipPath clipPathUnits="userSpaceOnUse" id="clipPath52">
                <path d="M54 154 L67 154 L67 172 L54 172 L54 154 Z"/>
            </clipPath>
            <clipPath clipPathUnits="userSpaceOnUse" id="clipPath53">
                <path d="M214 154 L227 154 L227 172 L214 172 L214 154 Z"/>
            </clipPath>
            <clipPath clipPathUnits="userSpaceOnUse" id="clipPath54">
                <path d="M374 154 L387 154 L387 172 L374 172 L374 154 Z"/>
            </clipPath>
            <clipPath clipPathUnits="userSpaceOnUse" id="clipPath55">
                <path d="M534 154 L547 154 L547 172 L534 172 L534 154 Z"/>
            </clipPath>
            <clipPath clipPathUnits="userSpaceOnUse" id="clipPath56">
                <path d="M694 154 L707 154 L707 172 L694 172 L694 154 Z"/>
            </clipPath>
        </defs>
        <g fill="url(#linearGradient1)" font-family="'Segoe UI'" stroke-linejoin="round" stroke="url(#linearGradient1)" stroke-width="0" stroke-miterlimit="0">
            <rect x="10" y="10" clip-path="url(#clipPath1)" width="100" height="100" stroke="none"/>
            <text x="26" y="26" clip-path="url(#clipPath2)" fill="black" stroke="none" xml:space="preserve">«Stereotype»</text>
            <text x="44" y="42" clip-path="url(#clipPath3)" fill="black" stroke="none" xml:space="preserve">Refine</text>
        </g>
        <g stroke-width="1.1" font-family="'Segoe UI'" stroke-linecap="butt">
            <line clip-path="url(#clipPath4)" fill="none" x1="10" x2="110" y1="45" y2="45"/>
            <line clip-path="url(#clipPath5)" fill="none" x1="10" x2="110" y1="78" y2="78"/>
            <rect x="10" y="10" clip-path="url(#clipPath6)" fill="none" width="99" rx="0" ry="0" height="99"/>
            <rect x="10" y="170" clip-path="url(#clipPath7)" fill="url(#linearGradient2)" width="100" height="50" stroke="none"/>
            <text xml:space="preserve" x="28" y="193" clip-path="url(#clipPath8)" stroke="none">«Metaclass»</text>
            <text xml:space="preserve" x="30" y="209" clip-path="url(#clipPath9)" stroke="none">Abstraction</text>
            <rect x="10" y="170" clip-path="url(#clipPath10)" fill="none" width="99" rx="0" ry="0" height="49"/>
            <rect x="170" y="10" clip-path="url(#clipPath11)" fill="url(#linearGradient3)" width="100" height="100" stroke="none"/>
            <text xml:space="preserve" x="186" y="26" clip-path="url(#clipPath12)" stroke="none">«Stereotype»</text>
            <text xml:space="preserve" x="186" y="42" clip-path="url(#clipPath13)" stroke="none">Requirement</text>
            <line clip-path="url(#clipPath14)" fill="none" x1="170" x2="270" y1="45" y2="45"/>
            <line clip-path="url(#clipPath15)" fill="none" x1="170" x2="270" y1="78" y2="78"/>
            <rect x="170" y="10" clip-path="url(#clipPath16)" fill="none" width="99" rx="0" ry="0" height="99"/>
            <rect x="170" y="170" clip-path="url(#clipPath17)" fill="url(#linearGradient4)" width="100" height="50" stroke="none"/>
            <text xml:space="preserve" x="188" y="193" clip-path="url(#clipPath18)" stroke="none">«Metaclass»</text>
            <text xml:space="preserve" x="207" y="209" clip-path="url(#clipPath19)" stroke="none">Class</text>
            <rect x="170" y="170" clip-path="url(#clipPath20)" fill="none" width="99" rx="0" ry="0" height="49"/>
            <rect x="330" y="10" clip-path="url(#clipPath21)" fill="url(#linearGradient5)" width="100" height="100" stroke="none"/>
            <text xml:space="preserve" x="346" y="26" clip-path="url(#clipPath22)" stroke="none">«Stereotype»</text>
            <text xml:space="preserve" x="358" y="42" clip-path="url(#clipPath23)" stroke="none">TestCase</text>
            <line clip-path="url(#clipPath24)" fill="none" x1="330" x2="430" y1="45" y2="45"/>
            <line clip-path="url(#clipPath25)" fill="none" x1="330" x2="430" y1="78" y2="78"/>
            <rect x="330" y="10" clip-path="url(#clipPath26)" fill="none" width="99" rx="0" ry="0" height="99"/>
            <rect x="330" y="170" clip-path="url(#clipPath27)" fill="url(#linearGradient6)" width="100" height="50" stroke="none"/>
            <text x="347" y="193" clip-path="url(#clipPath28)" font-style="italic" stroke="none" xml:space="preserve">«Metaclass»</text>
            <text x="356" y="209" clip-path="url(#clipPath29)" font-style="italic" stroke="none" xml:space="preserve">Behavior</text>
            <rect x="330" y="170" clip-path="url(#clipPath30)" fill="none" width="99" rx="0" ry="0" height="49"/>
            <rect x="490" y="10" clip-path="url(#clipPath31)" fill="url(#linearGradient7)" width="100" height="100" stroke="none"/>
            <text xml:space="preserve" x="506" y="26" clip-path="url(#clipPath32)" stroke="none">«Stereotype»</text>
            <text xml:space="preserve" x="518" y="42" clip-path="url(#clipPath33)" stroke="none">TestCase</text>
            <line clip-path="url(#clipPath34)" fill="none" x1="490" x2="590" y1="45" y2="45"/>
            <line clip-path="url(#clipPath35)" fill="none" x1="490" x2="590" y1="78" y2="78"/>
            <rect x="490" y="10" clip-path="url(#clipPath36)" fill="none" width="99" rx="0" ry="0" height="99"/>
            <rect x="490" y="170" clip-path="url(#clipPath37)" fill="url(#linearGradient8)" width="100" height="50" stroke="none"/>
            <text xml:space="preserve" x="508" y="193" clip-path="url(#clipPath38)" stroke="none">«Metaclass»</text>
            <text xml:space="preserve" x="514" y="209" clip-path="url(#clipPath39)" stroke="none">Operation</text>
            <rect x="490" y="170" clip-path="url(#clipPath40)" fill="none" width="99" rx="0" ry="0" height="49"/>
            <rect x="650" y="10" clip-path="url(#clipPath41)" fill="url(#linearGradient9)" width="100" height="100" stroke="none"/>
            <text xml:space="preserve" x="666" y="26" clip-path="url(#clipPath42)" stroke="none">«Stereotype»</text>
            <text xml:space="preserve" x="687" y="42" clip-path="url(#clipPath43)" stroke="none">Trace</text>
            <line clip-path="url(#clipPath44)" fill="none" x1="650" x2="750" y1="45" y2="45"/>
            <line clip-path="url(#clipPath45)" fill="none" x1="650" x2="750" y1="78" y2="78"/>
            <rect x="650" y="10" clip-path="url(#clipPath46)" fill="none" width="99" rx="0" ry="0" height="99"/>
            <rect x="650" y="170" clip-path="url(#clipPath47)" fill="url(#linearGradient10)" width="100" height="50" stroke="none"/>
            <text xml:space="preserve" x="668" y="193" clip-path="url(#clipPath48)" stroke="none">«Metaclass»</text>
            <text xml:space="preserve" x="670" y="209" clip-path="url(#clipPath49)" stroke="none">Abstraction</text>
            <rect x="650" y="170" clip-path="url(#clipPath50)" fill="none" width="99" rx="0" ry="0" height="49"/>
            <line clip-path="url(#clipPath51)" fill="none" text-rendering="optimizeLegibility" x1="60" x2="60" y1="110" y2="170"/>
            <polygon text-rendering="optimizeLegibility" clip-path="url(#clipPath52)" points=" 60 170 55 155 65 155" stroke="none"/>
            <polygon text-rendering="optimizeLegibility" fill="none" clip-path="url(#clipPath52)" points=" 60 170 55 155 65 155"/>
            <line clip-path="url(#clipPath51)" fill="none" text-rendering="optimizeLegibility" x1="220" x2="220" y1="110" y2="170"/>
            <polygon text-rendering="optimizeLegibility" clip-path="url(#clipPath53)" points=" 220 170 215 155 225 155" stroke="none"/>
            <polygon text-rendering="optimizeLegibility" fill="none" clip-path="url(#clipPath53)" points=" 220 170 215 155 225 155"/>
            <line clip-path="url(#clipPath51)" fill="none" text-rendering="optimizeLegibility" x1="380" x2="380" y1="110" y2="170"/>
            <polygon text-rendering="optimizeLegibility" clip-path="url(#clipPath54)" points=" 380 170 375 155 385 155" stroke="none"/>
            <polygon text-rendering="optimizeLegibility" fill="none" clip-path="url(#clipPath54)" points=" 380 170 375 155 385 155"/>
            <line clip-path="url(#clipPath51)" fill="none" text-rendering="optimizeLegibility" x1="540" x2="540" y1="110" y2="170"/>
            <polygon text-rendering="optimizeLegibility" clip-path="url(#clipPath55)" points=" 540 170 535 155 545 155" stroke="none"/>
            <polygon text-rendering="optimizeLegibility" fill="none" clip-path="url(#clipPath55)" points=" 540 170 535 155 545 155"/>
            <line clip-path="url(#clipPath51)" fill="none" text-rendering="optimizeLegibility" x1="700" x2="700" y1="110" y2="170"/>
            <polygon text-rendering="optimizeLegibility" clip-path="url(#clipPath56)" points=" 700 170 695 155 705 155" stroke="none"/>
            <polygon text-rendering="optimizeLegibility" fill="none" clip-path="url(#clipPath56)" points=" 700 170 695 155 705 155"/>
        </g>
    </g>
    <rect x="10" y="10" fill-opacity="0" width="100" id="Refine" height="100" stroke-opacity="0"/>
    <rect x="10" y="170" fill-opacity="0" width="100" title="An Abstraction is a Relationship that relates two Elements or sets of Elements that represent the same concept at different levels of abstraction or from different viewpoints." id="Abstraction" height="50" stroke-opacity="0">
        <title>An Abstraction is a Relationship that relates two Elements or sets of Elements that represent the same concept at different levels of abstraction or from different viewpoints.</title>
    </rect>
    <rect x="170" y="10" fill-opacity="0" width="100" title="&#10;            A requirement specifies a capability or condition that must (or should) be satisfied. A requirement may specify a function that a system must perform or a performance condition that a system must satisfy. Requirements are used to establish a contract between the customer (or other stakeholder) and those responsible for designing and implementing the system.&#10;          " id="Requirement" height="100" stroke-opacity="0">
        <title>
            A requirement specifies a capability or condition that must (or should) be satisfied. A requirement may specify a function that a system must perform or a performance condition that a system must satisfy. Requirements are used to establish a contract between the customer (or other stakeholder) and those responsible for designing and implementing the system.
          </title>
    </rect>
    <rect x="170" y="170" fill-opacity="0" width="100" title="A Class classifies a set of objects and specifies the features that characterize the structure and behavior of those objects.  A Class may have an internal structure and Ports." id="Class" height="50" stroke-opacity="0">
        <title>A Class classifies a set of objects and specifies the features that characterize the structure and behavior of those objects.  A Class may have an internal structure and Ports.</title>
    </rect>
    <rect x="330" y="10" fill-opacity="0" width="100" title="A test case is a method for verifying a requirement is satisfied." id="TestCase" height="100" stroke-opacity="0">
        <title>A test case is a method for verifying a requirement is satisfied.</title>
    </rect>
    <rect x="330" y="170" fill-opacity="0" width="100" title="Behavior is a specification of how its context BehavioredClassifier changes state over time. This specification may be either a definition of possible behavior execution or emergent behavior, or a selective illustration of an interesting subset of possible executions. The latter form is typically used for capturing examples, such as a trace of a particular execution." id="Behavior" height="50" stroke-opacity="0">
        <title>Behavior is a specification of how its context BehavioredClassifier changes state over time. This specification may be either a definition of possible behavior execution or emergent behavior, or a selective illustration of an interesting subset of possible executions. The latter form is typically used for capturing examples, such as a trace of a particular execution.</title>
    </rect>
    <rect x="490" y="10" fill-opacity="0" width="100" title="A test case is a method for verifying a requirement is satisfied." id="TestCase" height="100" stroke-opacity="0">
        <title>A test case is a method for verifying a requirement is satisfied.</title>
    </rect>
    <rect x="490" y="170" fill-opacity="0" width="100" title="An Operation is a BehavioralFeature of a Classifier that specifies the name, type, parameters, and constraints for invoking an associated Behavior. An Operation may invoke both the execution of method behaviors as well as other behavioral responses. Operation specializes TemplateableElement in order to support specification of template operations and bound operations. Operation specializes ParameterableElement to specify that an operation can be exposed as a formal template parameter, and provided as an actual parameter in a binding of a template." id="Operation" height="50" stroke-opacity="0">
        <title>An Operation is a BehavioralFeature of a Classifier that specifies the name, type, parameters, and constraints for invoking an associated Behavior. An Operation may invoke both the execution of method behaviors as well as other behavioral responses. Operation specializes TemplateableElement in order to support specification of template operations and bound operations. Operation specializes ParameterableElement to specify that an operation can be exposed as a formal template parameter, and provided as an actual parameter in a binding of a template.</title>
    </rect>
    <rect x="650" y="10" fill-opacity="0" width="100" id="Trace" height="100" stroke-opacity="0"/>
    <rect x="650" y="170" fill-opacity="0" width="100" title="An Abstraction is a Relationship that relates two Elements or sets of Elements that represent the same concept at different levels of abstraction or from different viewpoints." id="Abstraction" height="50" stroke-opacity="0">
        <title>An Abstraction is a Relationship that relates two Elements or sets of Elements that represent the same concept at different levels of abstraction or from different viewpoints.</title>
    </rect>
</svg>
