<?xml version="1.0" encoding="UTF-8"?><svg xmlns="http://www.w3.org/2000/svg" xmlns:xlink="http://www.w3.org/1999/xlink" stroke-dasharray="none" shape-rendering="auto" font-family="'Dialog'" width="917" text-rendering="auto" fill-opacity="1" contentScriptType="text/ecmascript" color-interpolation="auto" color-rendering="auto" preserveAspectRatio="xMidYMid meet" font-size="12" viewBox="0 0 917 1020" fill="black" stroke="black" image-rendering="auto" stroke-miterlimit="10" zoomAndPan="magnify" version="1.0" stroke-linecap="square" stroke-linejoin="miter" contentStyleType="text/css" font-style="normal" height="1020" stroke-width="1" stroke-dashoffset="0" font-weight="normal" stroke-opacity="1">
    <!--Generated by the Batik Graphics2D SVG Generator-->
    <defs id="genericDefs"/>
    <g>
        <defs id="defs1">
            <linearGradient x1="50" x2="50" y1="30" gradientUnits="userSpaceOnUse" y2="787" xlink:type="simple" xlink:actuate="onLoad" id="linearGradient1" xlink:show="other" spreadMethod="pad">
                <stop stop-opacity="1" stop-color="white" offset="0%"/>
                <stop stop-opacity="1" stop-color="white" offset="100%"/>
            </linearGradient>
            <linearGradient x1="529" x2="529" y1="64" gradientUnits="userSpaceOnUse" y2="764" xlink:type="simple" xlink:actuate="onLoad" id="linearGradient2" xlink:show="other" spreadMethod="pad">
                <stop stop-opacity="1" stop-color="white" offset="0%"/>
                <stop stop-opacity="1" stop-color="rgb(195,209,213)" offset="100%"/>
            </linearGradient>
            <linearGradient x1="569" x2="569" y1="270" gradientUnits="userSpaceOnUse" y2="610" xlink:type="simple" xlink:actuate="onLoad" id="linearGradient3" xlink:show="other" spreadMethod="pad">
                <stop stop-opacity="1" stop-color="white" offset="0%"/>
                <stop stop-opacity="1" stop-color="rgb(195,209,213)" offset="100%"/>
            </linearGradient>
            <linearGradient x1="669" x2="669" y1="64" gradientUnits="userSpaceOnUse" y2="764" xlink:type="simple" xlink:actuate="onLoad" id="linearGradient4" xlink:show="other" spreadMethod="pad">
                <stop stop-opacity="1" stop-color="white" offset="0%"/>
                <stop stop-opacity="1" stop-color="rgb(195,209,213)" offset="100%"/>
            </linearGradient>
            <linearGradient x1="709" x2="709" y1="390" gradientUnits="userSpaceOnUse" y2="470" xlink:type="simple" xlink:actuate="onLoad" id="linearGradient5" xlink:show="other" spreadMethod="pad">
                <stop stop-opacity="1" stop-color="white" offset="0%"/>
                <stop stop-opacity="1" stop-color="rgb(195,209,213)" offset="100%"/>
            </linearGradient>
            <linearGradient x1="250" x2="250" y1="64" gradientUnits="userSpaceOnUse" y2="764" xlink:type="simple" xlink:actuate="onLoad" id="linearGradient6" xlink:show="other" spreadMethod="pad">
                <stop stop-opacity="1" stop-color="white" offset="0%"/>
                <stop stop-opacity="1" stop-color="rgb(195,209,213)" offset="100%"/>
            </linearGradient>
            <linearGradient x1="290" x2="290" y1="110" gradientUnits="userSpaceOnUse" y2="690" xlink:type="simple" xlink:actuate="onLoad" id="linearGradient7" xlink:show="other" spreadMethod="pad">
                <stop stop-opacity="1" stop-color="white" offset="0%"/>
                <stop stop-opacity="1" stop-color="rgb(195,209,213)" offset="100%"/>
            </linearGradient>
            <linearGradient x1="130" x2="130" y1="64" gradientUnits="userSpaceOnUse" y2="764" xlink:type="simple" xlink:actuate="onLoad" id="linearGradient8" xlink:show="other" spreadMethod="pad">
                <stop stop-opacity="1" stop-color="white" offset="0%"/>
                <stop stop-opacity="1" stop-color="rgb(195,209,213)" offset="100%"/>
            </linearGradient>
            <linearGradient x1="389" x2="389" y1="64" gradientUnits="userSpaceOnUse" y2="764" xlink:type="simple" xlink:actuate="onLoad" id="linearGradient9" xlink:show="other" spreadMethod="pad">
                <stop stop-opacity="1" stop-color="white" offset="0%"/>
                <stop stop-opacity="1" stop-color="rgb(195,209,213)" offset="100%"/>
            </linearGradient>
            <linearGradient x1="429" x2="429" y1="170" gradientUnits="userSpaceOnUse" y2="670" xlink:type="simple" xlink:actuate="onLoad" id="linearGradient10" xlink:show="other" spreadMethod="pad">
                <stop stop-opacity="1" stop-color="white" offset="0%"/>
                <stop stop-opacity="1" stop-color="rgb(195,209,213)" offset="100%"/>
            </linearGradient>
            <clipPath clipPathUnits="userSpaceOnUse" id="clipPath1">
                <path d="M50 30 L50 786 L906 786 L906 30 Z"/>
            </clipPath>
            <clipPath clipPathUnits="userSpaceOnUse" id="clipPath2">
                <path d="M47 27 L910 27 L910 790 L47 790 L47 27 Z"/>
            </clipPath>
            <clipPath clipPathUnits="userSpaceOnUse" id="clipPath3">
                <path d="M55 32 L154 32 L154 49 L55 49 L55 32 Z"/>
            </clipPath>
            <clipPath clipPathUnits="userSpaceOnUse" id="clipPath4">
                <path d="M528 63 L630 63 L630 765 L528 765 L528 63 Z"/>
            </clipPath>
            <clipPath clipPathUnits="userSpaceOnUse" id="clipPath5">
                <path d="M529 64 L529 763 L628 763 L628 64 Z"/>
            </clipPath>
            <clipPath clipPathUnits="userSpaceOnUse" id="clipPath6">
                <path d="M536 66 L623 66 L623 83 L536 83 L536 66 Z"/>
            </clipPath>
            <clipPath clipPathUnits="userSpaceOnUse" id="clipPath7">
                <path d="M569 270 L569 609 L588 609 L588 270 Z"/>
            </clipPath>
            <clipPath clipPathUnits="userSpaceOnUse" id="clipPath8">
                <path d="M568 269 L590 269 L590 611 L568 611 L568 269 Z"/>
            </clipPath>
            <clipPath clipPathUnits="userSpaceOnUse" id="clipPath9">
                <path d="M668 63 L770 63 L770 765 L668 765 L668 63 Z"/>
            </clipPath>
            <clipPath clipPathUnits="userSpaceOnUse" id="clipPath10">
                <path d="M669 64 L669 763 L768 763 L768 64 Z"/>
            </clipPath>
            <clipPath clipPathUnits="userSpaceOnUse" id="clipPath11">
                <path d="M697 66 L742 66 L742 83 L697 83 L697 66 Z"/>
            </clipPath>
            <clipPath clipPathUnits="userSpaceOnUse" id="clipPath12">
                <path d="M709 390 L709 469 L728 469 L728 390 Z"/>
            </clipPath>
            <clipPath clipPathUnits="userSpaceOnUse" id="clipPath13">
                <path d="M708 389 L730 389 L730 471 L708 471 L708 389 Z"/>
            </clipPath>
            <clipPath clipPathUnits="userSpaceOnUse" id="clipPath14">
                <path d="M249 63 L351 63 L351 765 L249 765 L249 63 Z"/>
            </clipPath>
            <clipPath clipPathUnits="userSpaceOnUse" id="clipPath15">
                <path d="M250 64 L250 763 L349 763 L349 64 Z"/>
            </clipPath>
            <clipPath clipPathUnits="userSpaceOnUse" id="clipPath16">
                <path d="M285 66 L316 66 L316 83 L285 83 L285 66 Z"/>
            </clipPath>
            <clipPath clipPathUnits="userSpaceOnUse" id="clipPath17">
                <path d="M290 110 L290 689 L309 689 L309 110 Z"/>
            </clipPath>
            <clipPath clipPathUnits="userSpaceOnUse" id="clipPath18">
                <path d="M289 109 L311 109 L311 691 L289 691 L289 109 Z"/>
            </clipPath>
            <clipPath clipPathUnits="userSpaceOnUse" id="clipPath19">
                <path d="M129 63 L231 63 L231 765 L129 765 L129 63 Z"/>
            </clipPath>
            <clipPath clipPathUnits="userSpaceOnUse" id="clipPath20">
                <path d="M130 64 L130 763 L229 763 L229 64 Z"/>
            </clipPath>
            <clipPath clipPathUnits="userSpaceOnUse" id="clipPath21">
                <path d="M168 66 L194 66 L194 83 L168 83 L168 66 Z"/>
            </clipPath>
            <clipPath clipPathUnits="userSpaceOnUse" id="clipPath22">
                <path d="M388 63 L490 63 L490 765 L388 765 L388 63 Z"/>
            </clipPath>
            <clipPath clipPathUnits="userSpaceOnUse" id="clipPath23">
                <path d="M389 64 L389 763 L488 763 L488 64 Z"/>
            </clipPath>
            <clipPath clipPathUnits="userSpaceOnUse" id="clipPath24">
                <path d="M399 66 L481 66 L481 83 L399 83 L399 66 Z"/>
            </clipPath>
            <clipPath clipPathUnits="userSpaceOnUse" id="clipPath25">
                <path d="M429 170 L429 669 L448 669 L448 170 Z"/>
            </clipPath>
            <clipPath clipPathUnits="userSpaceOnUse" id="clipPath26">
                <path d="M428 169 L450 169 L450 671 L428 671 L428 169 Z"/>
            </clipPath>
            <clipPath clipPathUnits="userSpaceOnUse" id="clipPath27">
                <path d="M49 29 L908 29 L908 788 L49 788 L49 29 Z"/>
            </clipPath>
            <clipPath clipPathUnits="userSpaceOnUse" id="clipPath28">
                <path d="M-1 -1 L918 -1 L918 1021 L-1 1021 L-1 -1 Z"/>
            </clipPath>
            <clipPath clipPathUnits="userSpaceOnUse" id="clipPath29">
                <path d="M630 475 L666 475 L666 492 L630 492 L630 475 Z"/>
            </clipPath>
            <clipPath clipPathUnits="userSpaceOnUse" id="clipPath30">
                <path d="M588 463 L607 463 L607 478 L588 478 L588 463 Z"/>
            </clipPath>
            <clipPath clipPathUnits="userSpaceOnUse" id="clipPath31">
                <path d="M182 89 L290 89 L290 106 L182 106 L182 89 Z"/>
            </clipPath>
            <clipPath clipPathUnits="userSpaceOnUse" id="clipPath32">
                <path d="M273 103 L292 103 L292 118 L273 118 L273 103 Z"/>
            </clipPath>
            <clipPath clipPathUnits="userSpaceOnUse" id="clipPath33">
                <path d="M437 615 L570 615 L570 632 L437 632 L437 615 Z"/>
            </clipPath>
            <clipPath clipPathUnits="userSpaceOnUse" id="clipPath34">
                <path d="M438 603 L457 603 L457 618 L438 618 L438 603 Z"/>
            </clipPath>
            <clipPath clipPathUnits="userSpaceOnUse" id="clipPath35">
                <path d="M598 369 L702 369 L702 386 L598 386 L598 369 Z"/>
            </clipPath>
            <clipPath clipPathUnits="userSpaceOnUse" id="clipPath36">
                <path d="M692 383 L711 383 L711 398 L692 398 L692 383 Z"/>
            </clipPath>
            <clipPath clipPathUnits="userSpaceOnUse" id="clipPath37">
                <path d="M157 715 L321 715 L321 732 L157 732 L157 715 Z"/>
            </clipPath>
            <clipPath clipPathUnits="userSpaceOnUse" id="clipPath38">
                <path d="M179 703 L198 703 L198 718 L179 718 L179 703 Z"/>
            </clipPath>
            <clipPath clipPathUnits="userSpaceOnUse" id="clipPath39">
                <path d="M464 249 L557 249 L557 266 L464 266 L464 249 Z"/>
            </clipPath>
            <clipPath clipPathUnits="userSpaceOnUse" id="clipPath40">
                <path d="M552 263 L571 263 L571 278 L552 278 L552 263 Z"/>
            </clipPath>
            <clipPath clipPathUnits="userSpaceOnUse" id="clipPath41">
                <path d="M301 675 L436 675 L436 692 L301 692 L301 675 Z"/>
            </clipPath>
            <clipPath clipPathUnits="userSpaceOnUse" id="clipPath42">
                <path d="M299 663 L318 663 L318 678 L299 678 L299 663 Z"/>
            </clipPath>
            <clipPath clipPathUnits="userSpaceOnUse" id="clipPath43">
                <path d="M315 149 L428 149 L428 166 L315 166 L315 149 Z"/>
            </clipPath>
            <clipPath clipPathUnits="userSpaceOnUse" id="clipPath44">
                <path d="M412 163 L431 163 L431 178 L412 178 L412 163 Z"/>
            </clipPath>
        </defs>
        <g fill="url(#linearGradient1)" font-family="'Segoe UI'" stroke-linejoin="round" stroke="url(#linearGradient1)" stroke-width="0" stroke-miterlimit="0">
            <rect x="50" y="30" clip-path="url(#clipPath1)" width="857" height="757" stroke="none"/>
        </g>
        <g stroke-width="0.1" font-family="'Segoe UI'" stroke-linecap="butt">
            <line clip-path="url(#clipPath2)" fill="none" x1="167" x2="167" y1="30" y2="42"/>
            <line clip-path="url(#clipPath2)" fill="none" x1="167" x2="167" y1="42" y2="42"/>
            <line clip-path="url(#clipPath2)" fill="none" x1="167" x2="161" y1="42" y2="48"/>
            <line clip-path="url(#clipPath2)" fill="none" x1="161" x2="161" y1="48" y2="48"/>
            <line clip-path="url(#clipPath2)" fill="none" x1="161" x2="50" y1="48" y2="48"/>
            <text xml:space="preserve" x="56" y="46" clip-path="url(#clipPath3)" stroke="none">Indication santée  </text>
            <rect x="529" y="64" clip-path="url(#clipPath4)" fill="none" width="99" height="18" stroke-width="1.1"/>
            <line clip-path="url(#clipPath4)" fill="none" x1="579" x2="579" y1="82" y2="763" stroke-dasharray="5,5" stroke-width="1.1"/>
        </g>
        <g stroke-linecap="butt" fill="url(#linearGradient2)" font-family="'Segoe UI'" stroke-dasharray="5,5" stroke="url(#linearGradient2)" stroke-width="1.1">
            <rect x="529" y="64" clip-path="url(#clipPath5)" width="100" opacity="0" height="700" stroke="none"/>
            <text x="537" y="80" clip-path="url(#clipPath6)" fill="black" stroke="none" xml:space="preserve">Indicateur santé</text>
            <rect x="569" y="270" clip-path="url(#clipPath7)" fill="url(#linearGradient3)" width="20" height="340" stroke="none"/>
            <rect x="569" y="270" clip-path="url(#clipPath8)" fill="none" width="19" stroke-dasharray="none" rx="0" ry="0" height="339" stroke="black"/>
            <rect x="669" y="64" clip-path="url(#clipPath9)" fill="none" width="99" stroke-dasharray="none" height="18" stroke="black"/>
            <line clip-path="url(#clipPath9)" fill="none" x1="719" x2="719" y1="82" y2="763" stroke="black"/>
            <rect x="669" y="64" clip-path="url(#clipPath10)" fill="url(#linearGradient4)" width="100" opacity="0" height="700" stroke="none"/>
            <text x="698" y="80" clip-path="url(#clipPath11)" fill="black" stroke="none" xml:space="preserve">Capteur</text>
            <rect x="709" y="390" clip-path="url(#clipPath12)" fill="url(#linearGradient5)" width="20" height="80" stroke="none"/>
            <rect x="709" y="390" clip-path="url(#clipPath13)" fill="none" width="19" stroke-dasharray="none" rx="0" ry="0" height="79" stroke="black"/>
            <rect x="250" y="64" clip-path="url(#clipPath14)" fill="none" width="99" stroke-dasharray="none" height="18" stroke="black"/>
            <line clip-path="url(#clipPath14)" fill="none" x1="300" x2="300" y1="82" y2="763" stroke="black"/>
            <rect x="250" y="64" clip-path="url(#clipPath15)" fill="url(#linearGradient6)" width="100" opacity="0" height="700" stroke="none"/>
            <text x="286" y="80" clip-path="url(#clipPath16)" fill="black" stroke="none" xml:space="preserve">Ecran</text>
            <rect x="290" y="110" clip-path="url(#clipPath17)" fill="url(#linearGradient7)" width="20" height="580" stroke="none"/>
            <rect x="290" y="110" clip-path="url(#clipPath18)" fill="none" width="19" stroke-dasharray="none" rx="0" ry="0" height="579" stroke="black"/>
            <rect x="130" y="64" clip-path="url(#clipPath19)" fill="none" width="99" stroke-dasharray="none" height="18" stroke="black"/>
            <line clip-path="url(#clipPath19)" fill="none" x1="180" x2="180" y1="82" y2="763" stroke="black"/>
            <rect x="130" y="64" clip-path="url(#clipPath20)" fill="url(#linearGradient8)" width="100" opacity="0" height="700" stroke="none"/>
            <text x="169" y="80" clip-path="url(#clipPath21)" fill="black" stroke="none" xml:space="preserve">User</text>
            <rect x="389" y="64" clip-path="url(#clipPath22)" fill="none" width="99" stroke-dasharray="none" height="18" stroke="black"/>
            <line clip-path="url(#clipPath22)" fill="none" x1="439" x2="439" y1="82" y2="763" stroke="black"/>
            <rect x="389" y="64" clip-path="url(#clipPath23)" fill="url(#linearGradient9)" width="100" opacity="0" height="700" stroke="none"/>
            <text x="400" y="80" clip-path="url(#clipPath24)" fill="black" stroke="none" xml:space="preserve">Systeme Alfred</text>
            <rect x="429" y="170" clip-path="url(#clipPath25)" fill="url(#linearGradient10)" width="20" height="500" stroke="none"/>
            <rect x="429" y="170" clip-path="url(#clipPath26)" fill="none" width="19" stroke-dasharray="none" rx="0" ry="0" height="499" stroke="black"/>
            <rect x="50" y="30" clip-path="url(#clipPath27)" fill="none" width="856" stroke-dasharray="none" rx="0" ry="0" height="756" stroke="black"/>
        </g>
        <g text-rendering="optimizeLegibility" stroke-width="1.1" stroke-dasharray="6.6,3.3" font-family="'Segoe UI'" stroke-linecap="butt">
            <line clip-path="url(#clipPath28)" fill="none" x1="709" x2="589" y1="470" y2="470"/>
            <text xml:space="preserve" x="631" y="489" clip-path="url(#clipPath29)" stroke="none">values</text>
            <line clip-path="url(#clipPath30)" fill="none" x1="605" x2="589" y1="464" y2="470" stroke-dasharray="none"/>
            <line clip-path="url(#clipPath30)" fill="none" x1="589" x2="605" y1="470" y2="476" stroke-dasharray="none"/>
            <line clip-path="url(#clipPath28)" fill="none" x1="180" x2="290" y1="110" y2="110" stroke-dasharray="none"/>
            <text x="183" y="103" clip-path="url(#clipPath31)" stroke-dasharray="none" stroke="none" xml:space="preserve">get indicateur Santé</text>
            <polygon stroke-dasharray="none" clip-path="url(#clipPath32)" points=" 290 110 274 116 274 104" stroke="none"/>
            <polygon fill="none" stroke-dasharray="none" clip-path="url(#clipPath32)" points=" 290 110 274 116 274 104"/>
            <line clip-path="url(#clipPath28)" fill="none" x1="569" x2="439" y1="610" y2="610"/>
            <text xml:space="preserve" x="438" y="629" clip-path="url(#clipPath33)" stroke="none">datas module computed</text>
            <line clip-path="url(#clipPath34)" fill="none" x1="455" x2="439" y1="604" y2="610" stroke-dasharray="none"/>
            <line clip-path="url(#clipPath34)" fill="none" x1="439" x2="455" y1="610" y2="616" stroke-dasharray="none"/>
            <line clip-path="url(#clipPath28)" fill="none" x1="589" x2="709" y1="390" y2="390" stroke-dasharray="none"/>
            <text x="599" y="383" clip-path="url(#clipPath35)" stroke-dasharray="none" stroke="none" xml:space="preserve">get Values capteurs</text>
            <polygon stroke-dasharray="none" clip-path="url(#clipPath36)" points=" 709 390 693 396 693 384" stroke="none"/>
            <polygon fill="none" stroke-dasharray="none" clip-path="url(#clipPath36)" points=" 709 390 693 396 693 384"/>
            <line clip-path="url(#clipPath28)" fill="none" x1="300" x2="180" y1="710" y2="710"/>
            <text xml:space="preserve" x="158" y="729" clip-path="url(#clipPath37)" stroke="none">Access to Indicateur santé info</text>
            <line clip-path="url(#clipPath38)" fill="none" x1="196" x2="180" y1="704" y2="710" stroke-dasharray="none"/>
            <line clip-path="url(#clipPath38)" fill="none" x1="180" x2="196" y1="710" y2="716" stroke-dasharray="none"/>
            <line clip-path="url(#clipPath28)" fill="none" x1="449" x2="569" y1="270" y2="270" stroke-dasharray="none"/>
            <text x="465" y="263" clip-path="url(#clipPath39)" stroke-dasharray="none" stroke="none" xml:space="preserve">getDatas module</text>
            <polygon stroke-dasharray="none" clip-path="url(#clipPath40)" points=" 569 270 553 276 553 264" stroke="none"/>
            <polygon fill="none" stroke-dasharray="none" clip-path="url(#clipPath40)" points=" 569 270 553 276 553 264"/>
            <line clip-path="url(#clipPath28)" fill="none" x1="439" x2="300" y1="670" y2="670"/>
            <text xml:space="preserve" x="302" y="689" clip-path="url(#clipPath41)" stroke="none">Indicateur santée Loaded</text>
            <line clip-path="url(#clipPath42)" fill="none" x1="316" x2="300" y1="664" y2="670" stroke-dasharray="none"/>
            <line clip-path="url(#clipPath42)" fill="none" x1="300" x2="316" y1="670" y2="676" stroke-dasharray="none"/>
            <line clip-path="url(#clipPath28)" fill="none" x1="310" x2="429" y1="170" y2="170" stroke-dasharray="none"/>
            <text x="316" y="163" clip-path="url(#clipPath43)" stroke-dasharray="none" stroke="none" xml:space="preserve">load Indicateur santé</text>
            <polygon stroke-dasharray="none" clip-path="url(#clipPath44)" points=" 429 170 413 176 413 164" stroke="none"/>
            <polygon fill="none" stroke-dasharray="none" clip-path="url(#clipPath44)" points=" 429 170 413 176 413 164"/>
            <line clip-path="url(#clipPath28)" fill="none" x1="180" x2="290" y1="110" y2="110" stroke-dasharray="none"/>
            <text x="183" y="103" clip-path="url(#clipPath31)" stroke-dasharray="none" stroke="none" xml:space="preserve">get indicateur Santé</text>
            <polygon stroke-dasharray="none" clip-path="url(#clipPath32)" points=" 290 110 274 116 274 104" stroke="none"/>
            <polygon fill="none" stroke-dasharray="none" clip-path="url(#clipPath32)" points=" 290 110 274 116 274 104"/>
            <line clip-path="url(#clipPath28)" fill="none" x1="310" x2="429" y1="170" y2="170" stroke-dasharray="none"/>
            <text x="316" y="163" clip-path="url(#clipPath43)" stroke-dasharray="none" stroke="none" xml:space="preserve">load Indicateur santé</text>
            <polygon stroke-dasharray="none" clip-path="url(#clipPath44)" points=" 429 170 413 176 413 164" stroke="none"/>
            <polygon fill="none" stroke-dasharray="none" clip-path="url(#clipPath44)" points=" 429 170 413 176 413 164"/>
            <line clip-path="url(#clipPath28)" fill="none" x1="449" x2="569" y1="270" y2="270" stroke-dasharray="none"/>
            <text x="465" y="263" clip-path="url(#clipPath39)" stroke-dasharray="none" stroke="none" xml:space="preserve">getDatas module</text>
            <polygon stroke-dasharray="none" clip-path="url(#clipPath40)" points=" 569 270 553 276 553 264" stroke="none"/>
            <polygon fill="none" stroke-dasharray="none" clip-path="url(#clipPath40)" points=" 569 270 553 276 553 264"/>
            <line clip-path="url(#clipPath28)" fill="none" x1="569" x2="439" y1="610" y2="610"/>
            <text xml:space="preserve" x="438" y="629" clip-path="url(#clipPath33)" stroke="none">datas module computed</text>
            <line clip-path="url(#clipPath34)" fill="none" x1="455" x2="439" y1="604" y2="610" stroke-dasharray="none"/>
            <line clip-path="url(#clipPath34)" fill="none" x1="439" x2="455" y1="610" y2="616" stroke-dasharray="none"/>
            <line clip-path="url(#clipPath28)" fill="none" x1="589" x2="709" y1="390" y2="390" stroke-dasharray="none"/>
            <text x="599" y="383" clip-path="url(#clipPath35)" stroke-dasharray="none" stroke="none" xml:space="preserve">get Values capteurs</text>
            <polygon stroke-dasharray="none" clip-path="url(#clipPath36)" points=" 709 390 693 396 693 384" stroke="none"/>
            <polygon fill="none" stroke-dasharray="none" clip-path="url(#clipPath36)" points=" 709 390 693 396 693 384"/>
            <line clip-path="url(#clipPath28)" fill="none" x1="709" x2="589" y1="470" y2="470"/>
            <text xml:space="preserve" x="631" y="489" clip-path="url(#clipPath29)" stroke="none">values</text>
            <line clip-path="url(#clipPath30)" fill="none" x1="605" x2="589" y1="464" y2="470" stroke-dasharray="none"/>
            <line clip-path="url(#clipPath30)" fill="none" x1="589" x2="605" y1="470" y2="476" stroke-dasharray="none"/>
            <line clip-path="url(#clipPath28)" fill="none" x1="439" x2="300" y1="670" y2="670"/>
            <text xml:space="preserve" x="302" y="689" clip-path="url(#clipPath41)" stroke="none">Indicateur santée Loaded</text>
            <line clip-path="url(#clipPath42)" fill="none" x1="316" x2="300" y1="664" y2="670" stroke-dasharray="none"/>
            <line clip-path="url(#clipPath42)" fill="none" x1="300" x2="316" y1="670" y2="676" stroke-dasharray="none"/>
            <line clip-path="url(#clipPath28)" fill="none" x1="300" x2="180" y1="710" y2="710"/>
            <text xml:space="preserve" x="158" y="729" clip-path="url(#clipPath37)" stroke="none">Access to Indicateur santé info</text>
            <line clip-path="url(#clipPath38)" fill="none" x1="196" x2="180" y1="704" y2="710" stroke-dasharray="none"/>
            <line clip-path="url(#clipPath38)" fill="none" x1="180" x2="196" y1="710" y2="716" stroke-dasharray="none"/>
        </g>
    </g>
    <rect x="50" y="30" fill-opacity="0" width="857" id="Indication santée" height="757" stroke-opacity="0"/>
    <rect x="529" y="64" fill-opacity="0" width="100" id="Indicateur santé" height="700" stroke-opacity="0"/>
    <rect x="569" y="270" fill-opacity="0" width="20" id="BehaviorExecutionSpecification41" height="340" stroke-opacity="0"/>
    <rect x="669" y="64" fill-opacity="0" width="100" id="Capteur" height="700" stroke-opacity="0"/>
    <rect x="709" y="390" fill-opacity="0" width="20" id="BehaviorExecutionSpecification48" height="80" stroke-opacity="0"/>
    <rect x="250" y="64" fill-opacity="0" width="100" id="Ecran" height="700" stroke-opacity="0"/>
    <rect x="290" y="110" fill-opacity="0" width="20" id="BehaviorExecutionSpecification17" height="580" stroke-opacity="0"/>
    <rect x="130" y="64" fill-opacity="0" width="100" id="User" height="700" stroke-opacity="0"/>
    <rect x="389" y="64" fill-opacity="0" width="100" id="Systeme Alfred" height="700" stroke-opacity="0"/>
    <rect x="429" y="170" fill-opacity="0" width="20" id="BehaviorExecutionSpecification31" height="500" stroke-opacity="0"/>
</svg>
